<svg width="39" height="32" viewBox="0 0 39 32" fill="none" xmlns="http://www.w3.org/2000/svg">
<path d="M35.4012 32H32.1829V28.5715C32.1804 27.0565 31.3319 25.6041 29.8236 24.5329C28.3152 23.4616 26.2703 22.859 24.1372 22.8572H14.4823C12.3492 22.859 10.3042 23.4616 8.79592 24.5329C7.28761 25.6041 6.43911 27.0565 6.43656 28.5715V32H3.21826V28.5715C3.22167 26.4505 4.40951 24.4171 6.52118 22.9173C8.63286 21.4175 11.4959 20.5739 14.4823 20.5715H24.1372C27.1235 20.5739 29.9866 21.4175 32.0983 22.9173C34.21 24.4171 35.3978 26.4505 35.4012 28.5715V32Z" fill="white"/>
<path d="M1.60915 4.57147C1.18238 4.57147 0.773082 4.69188 0.471309 4.90621C0.169535 5.12053 0 5.41122 0 5.71433V16H3.2183V5.71433C3.2183 5.41122 3.04876 5.12053 2.74699 4.90621C2.44521 4.69188 2.03592 4.57147 1.60915 4.57147Z" fill="white"/>
<path d="M0 0V2.28571H8.04574V10.2857C8.04574 12.4074 9.23248 14.4423 11.3449 15.9426C13.4573 17.4429 16.3224 18.2857 19.3098 18.2857C22.2972 18.2857 25.1622 17.4429 27.2746 15.9426C29.3871 14.4423 30.5738 12.4074 30.5738 10.2857V2.28571H38.6195V0H0ZM11.264 2.28571H27.3555V5.71429H11.264V2.28571ZM19.3098 16C17.1759 16 15.1294 15.398 13.6206 14.3263C12.1117 13.2547 11.264 11.8012 11.264 10.2857V8H27.3555V10.2857C27.3555 11.8012 26.5078 13.2547 24.999 14.3263C23.4901 15.398 21.4436 16 19.3098 16Z" fill="white"/>
</svg>
