<svg width="367" height="188" viewBox="0 0 367 188" fill="none" xmlns="http://www.w3.org/2000/svg">
<path d="M330.715 187.14C330.615 187.334 330.513 187.528 330.411 187.722L20.6888 187.628C20.6888 187.628 20.5408 187.47 20.266 187.158L20.2491 187.14C12.2159 177.926 4.92679 164.299 1.82907 150.827C-2.68784 131.321 1.12442 112.186 13.6773 94.544C27.4888 75.1269 46.3513 59.7043 70.2678 60.0113H70.2903C83.0462 60.181 95.2566 64.8414 105.946 71.9695C116.103 78.7442 133.71 71.6652 144.327 64.3983C156.76 55.9285 167.286 43.5329 175.38 30.8891C203.966 -13.6711 271.143 -5.79996 302.875 27.7373C319.724 45.5112 326.348 69.6322 319.215 97.4196C317.876 102.635 317.127 108.075 317.444 113.466C319.132 142.866 350.336 149.394 330.715 187.14Z" fill="#F0F7FF"/>
<g opacity="0.5">
<path d="M319.213 97.4159C318.677 99.4837 318.249 101.577 317.929 103.689C317.706 105.191 317.551 106.64 317.464 108.035V108.126H195.93V27.7378H302.873C304.294 29.2333 305.651 30.7901 306.942 32.4081C319.964 48.6944 326.073 70.6969 319.213 97.4159Z" fill="#D8E8FC"/>
<path d="M319.213 97.4159C318.677 99.4836 318.249 101.577 317.929 103.689H200.978V32.408H306.942C319.964 48.6943 326.074 70.6968 319.213 97.4159Z" fill="#B1D2F9"/>
<path d="M317.44 113.462C317.338 111.687 317.344 109.908 317.458 108.134V108.043H192.969C191.747 108.049 190.576 108.528 189.703 109.379C188.83 110.23 188.325 111.386 188.294 112.601C188.294 112.649 188.294 112.695 188.294 112.741V113.465L317.44 113.462Z" fill="#B1D2F9"/>
</g>
<path d="M207.025 99.6514C207.025 99.6514 203.169 98.182 200.945 100.034C198.721 101.886 197.197 111.417 197.96 113.195C198.722 114.973 200.945 116.032 200.945 116.032C200.945 116.032 200.48 114.984 200.649 114.17C200.649 114.17 201.285 116.229 202.979 116.622C204.673 117.015 210.706 116.529 211.873 116.032C213.222 115.458 213.987 114.864 214.329 113.195C214.672 111.527 216.028 96.7141 207.025 99.6514Z" fill="#B5493F"/>
<path d="M225.68 187.123C225.651 187.125 225.621 187.125 225.592 187.123C225.481 187.128 225.371 187.096 225.281 187.031C225.191 186.967 225.125 186.874 225.094 186.768L219.445 162.474L219.035 160.704L220.966 160.62L221.598 163.932L225.952 186.785C225.958 186.825 225.955 186.866 225.945 186.905C225.934 186.945 225.915 186.981 225.89 187.013C225.864 187.044 225.833 187.07 225.797 187.089C225.761 187.108 225.721 187.12 225.68 187.123Z" fill="#E5BD9E"/>
<path d="M196.976 160.708L196.046 164.707L190.916 186.774C190.885 186.88 190.819 186.973 190.728 187.037C190.638 187.102 190.528 187.134 190.417 187.129C190.388 187.131 190.358 187.131 190.328 187.129C190.289 187.125 190.25 187.114 190.214 187.095C190.179 187.076 190.148 187.05 190.123 187.019C190.098 186.988 190.079 186.952 190.068 186.913C190.057 186.875 190.054 186.835 190.059 186.795L194.7 162.43L195.046 160.63L196.976 160.708Z" fill="#E5BD9E"/>
<path d="M196.976 160.709L196.046 164.708C196.018 164.249 195.882 163.803 195.648 163.406C195.414 163.009 195.089 162.673 194.7 162.425L195.046 160.625L196.976 160.709Z" fill="#CC9E7F"/>
<path d="M221.594 163.936C220.638 162.534 219.48 162.534 219.443 162.48L219.033 160.71L220.964 160.626L221.594 163.936Z" fill="#CC9E7F"/>
<path d="M193.136 160.884H221.108C221.772 160.884 222.409 160.622 222.878 160.155C223.347 159.688 223.611 159.054 223.611 158.394V156.395C223.611 155.734 223.347 155.1 222.878 154.633C222.408 154.166 221.771 153.903 221.107 153.903H193.136C192.472 153.903 191.835 154.166 191.365 154.633C190.895 155.1 190.631 155.734 190.631 156.395V158.395C190.632 158.722 190.696 159.046 190.822 159.348C190.948 159.65 191.133 159.925 191.365 160.156C191.598 160.387 191.874 160.57 192.178 160.695C192.482 160.82 192.807 160.884 193.136 160.884Z" fill="#C65447"/>
<path d="M216.91 145.685C216.082 141.095 213.669 135.871 213.669 135.871C215.425 128.552 213.632 120.322 213.632 120.322C212.666 120.064 211.683 119.877 210.689 119.761C210.565 119.108 210.21 117.144 210.059 115.453C210.043 115.256 210.029 115.064 210.017 114.877C209.986 114.451 209.984 114.024 210.01 113.598L208.774 113.679L203.682 114.017L203.467 114.031C203.467 114.031 203.498 114.485 203.505 115.171C203.522 116.401 203.461 118.371 203.017 119.782C200.827 120.008 199.343 120.326 199.343 120.326C197.91 120.569 198.215 129.448 200.893 136.351C202.126 139.528 198.638 144.445 198.638 145.688C198.638 146.932 217.21 147.344 216.91 145.685Z" fill="#FFB27D"/>
<path d="M210.055 115.45C209.577 116.011 208.364 117.212 206.836 117.239C204.836 117.274 203.5 115.168 203.5 115.168C203.533 114.78 203.592 114.394 203.678 114.014L208.77 113.676C209.204 114.055 209.619 114.454 210.013 114.874C210.025 115.06 210.039 115.252 210.055 115.45Z" fill="#EF9E67"/>
<path d="M206.801 116.049C204.03 116.049 201.763 113.771 201.763 110.986V106.767C201.761 105.868 202.117 105.005 202.753 104.366C203.388 103.727 204.253 103.365 205.156 103.357H208.212C209.116 103.365 209.98 103.727 210.616 104.366C211.251 105.005 211.607 105.868 211.605 106.767V111.22C211.608 112.493 211.104 113.716 210.204 114.62C209.304 115.525 208.081 116.039 206.801 116.049Z" fill="#FFB27D"/>
<path d="M205.136 112.904C205.136 112.904 205.241 113.574 206.875 113.597C206.875 113.597 208.248 113.615 208.261 112.896C208.261 112.89 206.976 112.275 205.136 112.904Z" fill="white"/>
<path d="M193.104 153.902C193.104 153.902 196.487 146.018 199.597 144.477C202.707 142.936 215.057 144.305 216.912 145.686C218.767 147.067 221.14 153.902 221.14 153.902H193.104Z" fill="#22356B"/>
<path d="M196.195 153.901C196.195 153.901 197.404 149.172 200.093 148.966C202.782 148.76 206.372 151.261 207.647 150.587C208.922 149.912 211.359 148.226 213.62 148.656C215.88 149.086 219.281 153.901 219.281 153.901H196.195Z" fill="#1B2E59"/>
<path d="M210.938 183.377L207.738 183.604C207.738 183.604 205.943 178.557 203.933 172.668C203.747 172.117 203.556 171.559 203.37 170.995C201.711 166.088 200.012 160.867 199.142 157.636C198.933 156.862 198.776 156.16 198.668 155.521C197.7 149.938 200.193 149.324 200.782 149.178C201.446 149.017 205.45 146.878 208.17 154.085C209.089 156.511 210.582 163.259 210.535 169.648C210.502 175.787 210.938 183.377 210.938 183.377Z" fill="#FFB27D"/>
<path d="M203.94 172.671C203.754 172.12 203.562 171.562 203.376 170.998C201.717 166.091 200.019 160.87 199.148 157.639C198.939 156.865 198.783 156.163 198.674 155.523C198.758 155.751 204.123 170.22 208.705 171.051C211.644 171.585 207.405 172.256 203.94 172.671Z" fill="#EF9E67"/>
<path d="M210.938 183.377L207.73 184.078L206.913 184.259C206.913 184.259 205.591 177.573 203.372 170.997C204.785 171.073 206.202 170.936 207.574 170.592C208.492 170.369 209.386 170.056 210.243 169.658C210.898 176.462 210.938 183.377 210.938 183.377Z" fill="#E9F3FE"/>
<path d="M207.732 184.08L206.915 184.261C206.915 184.261 205.593 177.575 203.375 170.999C204.787 171.075 206.204 170.938 207.576 170.594C207.576 170.594 206.502 180.457 207.732 184.08Z" fill="#C7DCF2"/>
<path d="M211.654 185.148C211.696 185.299 211.733 185.44 211.764 185.569C211.781 185.636 211.784 185.706 211.774 185.775C211.764 185.843 211.739 185.909 211.703 185.969C211.666 186.028 211.618 186.079 211.561 186.12C211.504 186.16 211.44 186.189 211.372 186.204L207.644 187.007C207.512 187.036 207.373 187.011 207.259 186.938C207.145 186.866 207.064 186.752 207.034 186.62C206.981 186.383 206.941 186.144 206.914 185.904C206.848 185.359 206.848 184.808 206.914 184.263C206.923 184.186 206.95 184.112 206.993 184.046C207.035 183.981 207.092 183.926 207.159 183.886C208.884 182.877 210.16 183.045 210.635 183.158C210.698 183.174 210.757 183.201 210.81 183.239C210.862 183.278 210.906 183.326 210.939 183.381C211.249 183.939 211.488 184.532 211.654 185.148Z" fill="#22356B"/>
<path d="M210.765 183.287C210.765 183.287 210.151 182.638 208.871 182.772C208.5 182.81 208.144 182.938 207.835 183.146C207.525 183.353 207.272 183.633 207.098 183.961L206.93 184.191C206.953 184.141 207.455 182.713 208.85 182.566C209.239 182.513 209.636 182.56 210.002 182.702C210.368 182.843 210.692 183.076 210.943 183.377L210.765 183.287Z" fill="#22356B"/>
<path d="M211.654 185.148C211.696 185.299 211.733 185.439 211.764 185.568C211.781 185.636 211.784 185.706 211.774 185.775C211.764 185.843 211.739 185.909 211.703 185.969C211.666 186.028 211.618 186.079 211.561 186.12C211.504 186.16 211.44 186.189 211.372 186.204L207.644 187.007C207.512 187.035 207.373 187.011 207.259 186.938C207.145 186.866 207.064 186.751 207.034 186.62C206.981 186.383 206.941 186.144 206.914 185.904C206.914 185.904 207.337 186.696 209.604 186.176C210.97 185.857 211.472 185.432 211.654 185.148Z" fill="#22356B"/>
<path d="M222.496 139.681L217.33 139.765C216.934 138.862 216.245 135.852 215.562 134.035C215.816 135.145 216.066 136.291 216.298 137.416C217.21 141.788 217.901 145.899 217.793 146.779C217.548 148.784 209.752 147.881 207.742 147.399C205.732 146.917 201.163 148.02 197.507 147.95C195.406 147.911 196.05 142.028 196.976 137.045C197.196 135.849 197.436 134.703 197.657 133.705C196.476 136.066 195.939 138.978 195.653 139.765C195.653 139.765 190.606 139.438 190.605 139.426C190.433 138.528 192.334 124.337 196.2 121.437C196.974 120.821 197.868 120.369 198.825 120.109C199.782 119.849 200.783 119.787 201.765 119.927C201.765 119.927 203.033 122.197 206.698 122.368C207.753 122.427 208.807 122.246 209.781 121.838C210.755 121.43 211.622 120.806 212.317 120.014C212.317 120.014 215.379 120.09 216.617 121.437C217.854 122.785 220.597 127.615 222.496 139.681Z" fill="#2B478B"/>
<path d="M217.79 146.779C217.544 148.784 209.748 147.881 207.738 147.398C205.728 146.916 201.159 148.02 197.504 147.949C195.402 147.91 196.046 142.027 196.972 137.044C196.972 137.044 200.934 144.014 205.872 143.966C210.811 143.919 216.301 137.416 216.301 137.416C217.21 141.787 217.897 145.898 217.79 146.779Z" fill="#233F77"/>
<path d="M203.308 118.448C203.308 118.448 205.026 121.839 206.7 122.373C206.7 122.373 204.32 123.278 200.85 119.862C201.099 119.433 201.458 119.076 201.889 118.828C202.32 118.58 202.81 118.449 203.308 118.448Z" fill="#E6F1FF"/>
<path d="M210.522 118.448C210.522 118.448 208.373 121.839 206.7 122.373C206.7 122.373 209.441 123.475 212.911 120.06C212.911 120.056 212.29 118.486 210.522 118.448Z" fill="#E6F1FF"/>
<path d="M206.458 122.358C206.459 122.305 206.477 122.253 206.508 122.21C206.539 122.166 206.582 122.133 206.632 122.113C206.682 122.094 206.737 122.09 206.789 122.101C206.842 122.113 206.89 122.139 206.927 122.177C206.965 122.216 206.99 122.264 207 122.317C207.009 122.369 207.004 122.424 206.983 122.473C206.962 122.522 206.927 122.564 206.882 122.594C206.837 122.623 206.785 122.639 206.731 122.639C206.658 122.637 206.588 122.606 206.537 122.554C206.486 122.501 206.458 122.431 206.458 122.358Z" fill="#35488B"/>
<path d="M206.181 129.332C206.182 129.23 206.213 129.13 206.27 129.045C206.328 128.96 206.41 128.894 206.505 128.855C206.6 128.816 206.705 128.806 206.806 128.827C206.907 128.847 207 128.897 207.072 128.969C207.145 129.042 207.194 129.134 207.214 129.235C207.234 129.336 207.224 129.44 207.184 129.534C207.145 129.629 207.078 129.71 206.992 129.767C206.906 129.824 206.806 129.854 206.703 129.854C206.564 129.853 206.431 129.798 206.334 129.7C206.236 129.602 206.181 129.47 206.181 129.332Z" fill="#233F77"/>
<path d="M206.181 137.713C206.182 137.611 206.213 137.511 206.271 137.426C206.329 137.341 206.411 137.276 206.506 137.237C206.601 137.198 206.706 137.189 206.807 137.209C206.908 137.23 207 137.279 207.073 137.352C207.145 137.425 207.195 137.517 207.214 137.618C207.234 137.718 207.224 137.822 207.184 137.917C207.144 138.011 207.078 138.092 206.992 138.149C206.906 138.206 206.806 138.236 206.703 138.236C206.564 138.235 206.431 138.18 206.333 138.082C206.236 137.984 206.181 137.851 206.181 137.713Z" fill="#233F77"/>
<path d="M221.581 153.397L221.595 151.938C221.595 151.938 223.599 139.554 222.211 139.171C220.823 138.788 218.21 140.105 218.21 140.105L219.033 151.938C219.019 152.21 218.979 152.48 218.913 152.745C218.878 152.753 218.843 152.759 218.809 152.768C217.446 153.158 218.265 155.975 219.281 156.025C220.026 156.062 220.99 154.937 221.644 154.552C221.929 154.378 221.846 153.594 221.581 153.397Z" fill="#EF9E67"/>
<path d="M217.325 139.764C217.325 139.764 217.003 141.51 217.799 141.765C218.595 142.02 222.662 142.149 222.916 141.765C223.17 141.381 222.818 138.452 222.212 138.236C221.605 138.02 217.704 138.815 217.325 139.764Z" fill="#233F77"/>
<path d="M194.768 140.104L193.946 151.937H191.384C191.384 151.937 189.379 139.553 190.767 139.17C192.155 138.787 194.768 140.104 194.768 140.104Z" fill="#FFB27D"/>
<path d="M191.336 154.551C191.054 154.384 191.134 153.595 191.399 153.396C192.031 152.919 193.188 152.487 194.17 152.767C195.533 153.157 194.714 155.974 193.698 156.024C192.952 156.061 191.987 154.939 191.336 154.551Z" fill="#FFB27D"/>
<path d="M191.381 151.937L191.399 153.945C191.727 153.914 193.582 154.609 194.159 153.845C194.383 153.547 193.967 152.76 193.943 151.937C193.868 149.471 191.381 151.937 191.381 151.937Z" fill="#FFB27D"/>
<path d="M195.65 139.764C195.65 139.764 195.973 141.51 195.177 141.765C194.38 142.02 190.313 142.149 190.059 141.765C189.806 141.381 190.159 138.452 190.764 138.236C191.369 138.02 195.274 138.815 195.65 139.764Z" fill="#233F77"/>
<path d="M207.346 104.025C207.346 104.025 208.103 106.738 210.059 107.503C210.059 107.503 209.157 105.94 209.474 105.173C209.474 105.173 210.341 108.238 211.608 109.291C211.608 109.291 213.412 102.939 208.266 102.62C203.121 102.3 201.056 105.014 201.025 106.966C201.012 108.156 201.265 109.333 201.765 110.414C201.765 110.414 202.329 106.806 204.584 105.753C206.839 104.7 207.346 104.025 207.346 104.025Z" fill="#B5493F"/>
<path d="M212.684 171.007C210.631 177.797 208.456 184.204 208.456 184.204L204.792 183.447C204.792 183.447 205.171 177.535 205.282 170.981C205.292 170.461 205.35 169.938 205.387 169.413C205.722 164.465 206.127 159.354 206.534 156.197C207.539 148.436 210.61 148.906 211.285 149.02C211.96 149.133 216.472 148.697 216.237 156.393C216.161 158.893 214.468 165.096 212.684 171.007Z" fill="#FFB27D"/>
<path d="M205.285 170.981C205.319 170.461 205.352 169.938 205.389 169.412C205.724 164.464 206.129 159.354 206.536 156.196C206.536 156.196 206.053 169.722 210.525 171.236C213.481 172.239 208.797 171.556 205.285 170.981Z" fill="#EF9E67"/>
<path d="M212.687 171.007C211.52 174.862 210.315 178.592 209.492 181.101C208.864 183.01 208.457 184.208 208.457 184.208L204.562 183.49C204.562 183.49 204.844 177.501 205.661 169.905C206.163 170.203 207.335 170.589 209.748 170.826C210.574 170.904 211.546 170.97 212.687 171.007Z" fill="#E9F3FE"/>
<path d="M208.476 186.362C208.46 186.519 208.443 186.662 208.425 186.789C208.416 186.858 208.394 186.924 208.359 186.984C208.324 187.044 208.277 187.096 208.221 187.138C208.165 187.179 208.102 187.209 208.034 187.225C207.966 187.241 207.896 187.244 207.827 187.232L204.069 186.587C203.935 186.564 203.816 186.49 203.737 186.38C203.658 186.271 203.625 186.135 203.646 186.001C203.684 185.762 203.734 185.525 203.798 185.291C203.938 184.761 204.141 184.249 204.404 183.768C204.441 183.699 204.493 183.64 204.557 183.595C204.62 183.55 204.693 183.521 204.77 183.509C206.744 183.216 207.871 183.839 208.266 184.13C208.319 184.167 208.364 184.215 208.399 184.27C208.434 184.325 208.457 184.387 208.467 184.451C208.548 185.085 208.551 185.727 208.476 186.362Z" fill="#35488B"/>
<path d="M208.334 184.301C208.334 184.292 208.003 183.469 206.765 183.118C206.408 183.014 206.031 183.001 205.667 183.078C205.303 183.155 204.964 183.32 204.679 183.559L204.438 183.709C204.479 183.671 205.473 182.533 206.822 182.918C207.204 183.015 207.555 183.206 207.842 183.474C208.13 183.742 208.344 184.078 208.465 184.451L208.334 184.301Z" fill="#35488B"/>
<path d="M208.475 186.363C208.459 186.52 208.442 186.663 208.424 186.79C208.416 186.859 208.393 186.925 208.358 186.985C208.323 187.045 208.276 187.097 208.22 187.139C208.165 187.18 208.101 187.21 208.033 187.226C207.966 187.242 207.895 187.245 207.827 187.233L204.068 186.588C203.934 186.565 203.815 186.491 203.736 186.381C203.657 186.272 203.624 186.136 203.645 186.002C203.683 185.763 203.734 185.525 203.797 185.291C203.797 185.291 203.903 186.187 206.193 186.553C207.577 186.766 208.193 186.559 208.475 186.363Z" fill="#35488B"/>
<path d="M118.289 187.239C118.289 187.239 118.258 183.454 119.925 183.161C121.592 182.868 124.012 181.955 124.345 187.239H118.289Z" fill="#22356B"/>
<path d="M130.613 187.239C130.613 187.239 130.584 183.454 132.25 183.161C133.916 182.868 136.337 181.955 136.671 187.239H130.613Z" fill="#22356B"/>
<path d="M115.515 146.889C114.539 149.16 113.896 151.559 113.607 154.012H137.134C137.134 154.012 134.979 147.087 133.047 146.321C131.115 145.556 115.515 146.889 115.515 146.889Z" fill="#1B2E59"/>
<path d="M120.278 112.878C120.278 112.878 118.088 109.883 116.642 107.478C114.916 104.61 115.881 99.994 122.166 99.0154C122.166 99.0154 124.185 98.5849 124.76 98.0493C124.76 98.0493 124.731 98.798 124.55 98.9971C124.55 98.9971 129.556 98.3424 129.915 100.579C131.015 107.421 129.731 109.918 129.731 109.918L120.278 112.878Z" fill="#B5493F"/>
<path d="M144.231 187.234C144.202 187.236 144.173 187.236 144.144 187.234C144.033 187.239 143.923 187.207 143.833 187.143C143.742 187.078 143.676 186.986 143.645 186.879L137.996 162.585L137.586 160.815L139.517 160.731L140.148 164.043L144.503 186.896C144.509 186.936 144.506 186.977 144.495 187.016C144.485 187.055 144.466 187.092 144.441 187.124C144.415 187.155 144.383 187.181 144.347 187.2C144.311 187.219 144.272 187.231 144.231 187.234Z" fill="#E5BD9E"/>
<path d="M115.522 160.819L114.592 164.818L109.462 186.885C109.431 186.991 109.365 187.084 109.274 187.148C109.184 187.213 109.074 187.245 108.963 187.24C108.933 187.242 108.904 187.242 108.874 187.24C108.834 187.236 108.795 187.225 108.76 187.206C108.725 187.187 108.694 187.161 108.668 187.13C108.643 187.099 108.625 187.063 108.614 187.024C108.603 186.986 108.6 186.946 108.605 186.906L113.246 162.541L113.591 160.741L115.522 160.819Z" fill="#E5BD9E"/>
<path d="M115.522 160.819L114.592 164.817C114.564 164.358 114.428 163.913 114.194 163.516C113.96 163.119 113.635 162.783 113.246 162.535L113.591 160.735L115.522 160.819Z" fill="#CC9E7F"/>
<path d="M140.145 164.052C139.189 162.65 138.031 162.65 137.994 162.596L137.584 160.826L139.515 160.742L140.145 164.052Z" fill="#CC9E7F"/>
<path d="M139.657 160.995H111.686C110.303 160.995 109.182 159.88 109.182 158.504V156.504C109.182 155.128 110.303 154.013 111.686 154.013H139.657C141.041 154.013 142.162 155.128 142.162 156.504V158.504C142.162 159.88 141.041 160.995 139.657 160.995Z" fill="#A03530"/>
<path d="M135.461 145.796C134.632 141.206 132.219 135.982 132.219 135.982C133.975 128.663 132.183 120.433 132.183 120.433C131.217 120.174 130.233 119.987 129.239 119.872C129.116 119.219 128.761 117.254 128.61 115.562C128.595 115.366 128.581 115.174 128.568 114.987C128.539 114.562 128.539 114.134 128.568 113.709L127.332 113.79L122.24 114.128L122.024 114.142C122.024 114.142 122.055 114.596 122.064 115.28C122.078 116.511 122.019 118.48 121.575 119.893C119.385 120.119 117.901 120.437 117.901 120.437C116.467 120.68 116.773 129.559 119.451 136.461C120.684 139.638 117.196 144.555 117.196 145.799C117.196 147.043 135.76 147.455 135.461 145.796Z" fill="#FFB27D"/>
<path d="M128.607 115.56C128.129 116.12 126.915 117.323 125.388 117.35C123.388 117.385 122.053 115.278 122.053 115.278C122.085 114.89 122.144 114.505 122.229 114.125L127.321 113.787C127.756 114.164 128.171 114.562 128.566 114.98C128.577 115.171 128.591 115.363 128.607 115.56Z" fill="#EF9E67"/>
<path d="M126.013 115.95C125.361 116.074 124.69 116.07 124.04 115.936C123.39 115.803 122.772 115.544 122.222 115.173C121.673 114.802 121.202 114.327 120.837 113.775C120.471 113.224 120.219 112.606 120.094 111.957L119.286 107.816C119.113 106.933 119.297 106.017 119.799 105.268C120.3 104.518 121.078 103.996 121.964 103.813L124.963 103.222C125.85 103.054 126.767 103.243 127.514 103.747C128.261 104.252 128.776 105.03 128.946 105.912L129.792 110.283C130.037 111.532 129.778 112.827 129.071 113.887C128.364 114.948 127.265 115.689 126.013 115.95Z" fill="#FFB27D"/>
<path d="M123.772 113.185C123.772 113.185 124.003 113.822 125.604 113.527C125.604 113.527 126.955 113.281 126.829 112.566C126.841 112.566 125.463 112.211 123.772 113.185Z" fill="white"/>
<path d="M142.443 142.391L138.005 140.163L136.669 139.491C136.273 138.588 134.938 135.763 134.111 134.145C134.295 134.954 134.478 135.783 134.655 136.609C134.719 136.916 134.783 137.221 134.848 137.527C135.758 141.897 136.449 146.01 136.342 146.89C136.096 148.895 128.3 147.992 126.29 147.51C124.281 147.027 119.711 148.131 116.056 148.059C113.954 148.022 114.598 142.138 115.524 137.154C115.744 135.96 115.985 134.814 116.205 133.816C115.024 136.178 113.809 138.671 113.517 139.458L111 140.788L108.217 142.259L108.145 142.298C108.139 142.287 108.135 142.274 108.134 142.26C107.965 141.352 111.031 124.54 114.899 121.642C114.899 121.567 114.918 121.494 114.955 121.429C114.992 121.364 115.046 121.31 115.11 121.272C116.629 120.227 118.487 119.787 120.316 120.038C120.316 120.038 121.584 122.309 125.249 122.482C126.304 122.54 127.359 122.359 128.332 121.95C129.306 121.542 130.173 120.917 130.868 120.125C130.868 120.125 132.662 120.17 134.057 120.795C134.475 120.969 134.852 121.226 135.168 121.549C136.388 122.876 142.319 134.263 142.443 142.391Z" fill="#A53A35"/>
<path d="M136.858 139.287C136.858 139.287 130.564 146.045 127.499 148.321L128.476 150.34C128.476 150.34 138.2 146.642 142.303 141.453L136.858 139.287Z" fill="#0052B4"/>
<path d="M128.292 147.846C128.292 147.846 125.702 148.574 125.281 149.389C124.859 150.203 125.037 152.508 125.691 152.124C126.345 151.74 129.947 149.361 129.947 149.361L128.292 147.846Z" fill="#0052B4"/>
<path d="M121.861 118.558C121.861 118.558 123.579 121.95 125.252 122.484C125.252 122.484 122.873 123.389 119.403 119.973C119.653 119.544 120.011 119.187 120.442 118.939C120.873 118.69 121.363 118.559 121.861 118.558Z" fill="#E6F1FF"/>
<path d="M129.074 118.558C129.074 118.558 126.925 121.95 125.251 122.484C125.251 122.484 128.069 123.389 131.532 119.973C131.283 119.544 130.924 119.187 130.493 118.939C130.062 118.691 129.572 118.56 129.074 118.558Z" fill="#E6F1FF"/>
<path d="M113.536 139.287C113.536 139.287 120.087 145.794 123.238 147.948L122.339 150.005C122.339 150.005 113.047 146.83 108.746 141.805L113.536 139.287Z" fill="#FFB27D"/>
<path d="M120.898 147.368C120.898 147.368 123.576 147.553 124.156 148.257C124.737 148.961 125.026 151.263 124.31 151.02C123.594 150.778 119.583 149.185 119.583 149.185L120.898 147.368Z" fill="#FFB27D"/>
<path d="M124.732 129.443C124.733 129.34 124.764 129.24 124.822 129.156C124.88 129.071 124.962 129.005 125.057 128.967C125.153 128.928 125.257 128.918 125.358 128.939C125.459 128.96 125.552 129.009 125.624 129.082C125.697 129.155 125.746 129.248 125.765 129.348C125.785 129.449 125.774 129.553 125.734 129.648C125.695 129.742 125.628 129.823 125.542 129.879C125.456 129.936 125.355 129.966 125.252 129.966C125.113 129.965 124.981 129.909 124.884 129.811C124.786 129.713 124.732 129.581 124.732 129.443Z" fill="#C65447"/>
<path d="M124.732 137.824C124.733 137.722 124.764 137.622 124.822 137.537C124.88 137.452 124.962 137.386 125.057 137.348C125.153 137.309 125.257 137.3 125.358 137.32C125.459 137.341 125.552 137.391 125.624 137.464C125.697 137.536 125.746 137.629 125.765 137.73C125.785 137.83 125.774 137.934 125.734 138.029C125.695 138.123 125.628 138.204 125.542 138.261C125.456 138.317 125.355 138.347 125.252 138.347C125.113 138.346 124.981 138.29 124.884 138.192C124.786 138.094 124.732 137.962 124.732 137.824Z" fill="#C65447"/>
<path d="M119.288 107.816C119.288 107.816 119.44 106.134 120.511 105.865C121.582 105.596 125.572 107.024 126.431 105.865C127.289 104.705 127.94 104.216 128.519 104.799C129.098 105.382 128.69 101.294 128.549 101.241C128.408 101.187 119.529 101.674 119.529 101.674L117.415 103.917L117.524 106.466L119.288 107.816Z" fill="#B5493F"/>
<path d="M125.516 183.719C125.516 183.719 124.015 184.345 121.733 184.362C120.115 184.373 118.51 184.078 117.003 183.492C117.003 183.492 115.687 174.231 114.9 166.309C114.455 161.805 114.179 157.733 114.414 156.045C115.062 151.389 117.171 148.698 119.832 148.922C122.492 149.147 124.98 150.999 125.165 153.246C125.349 155.494 125.516 183.719 125.516 183.719Z" fill="#2B478B"/>
<path d="M117.187 130.298L116.2 133.816C115.125 136.978 113.804 138.671 113.512 139.458L110.995 140.788L108.212 142.259H108.129C107.748 140.401 110.88 124.453 114.743 121.548C114.857 121.448 114.976 121.355 115.101 121.268C116.352 123.633 118.644 128.546 117.187 130.298Z" fill="#E6F1FF"/>
<path d="M115.512 140.749L114.269 141.839L111.062 144.643C109.287 144.503 108.006 142.388 108.006 142.388C108.633 141.38 109.59 140.647 110.543 140.124C111.542 139.585 112.614 139.194 113.727 138.963L115.512 140.749Z" fill="#E6F1FF"/>
<path d="M115.512 140.749L114.269 141.838C112.114 141.822 110.541 140.127 110.541 140.127C111.54 139.587 112.613 139.196 113.725 138.966L115.512 140.749Z" fill="#C7DCF2"/>
<path d="M134.06 120.794C134.483 120.985 134.991 121.203 135.283 121.52C135.676 121.949 136.504 123.463 137.525 125.544C139.668 129.902 142.359 136.901 142.443 142.391L139.849 141.089L138.005 140.163L136.669 139.492C135.882 138.205 134.801 135.832 134.111 134.146C134.295 134.955 134.478 135.783 134.655 136.609L132.73 129.443C131.873 128.176 133.679 122.038 134.06 120.794Z" fill="#E6F1FF"/>
<path d="M142.443 142.391C142.443 142.391 141.16 144.507 139.387 144.646L135.741 141.453L134.938 140.752L136.457 139.019C137.298 139.172 138.121 139.41 138.914 139.73C140.176 140.239 141.624 141.075 142.443 142.391Z" fill="#E6F1FF"/>
<path d="M138.914 139.73C138.914 139.73 137.201 141.237 135.741 141.453L134.938 140.752L136.457 139.019C137.298 139.172 138.122 139.41 138.914 139.73Z" fill="#C7DCF2"/>
<path d="M136.501 175.906C136.774 179.763 136.935 182.584 136.935 182.584C132.685 185.297 128.634 184.495 128.634 184.495C128.634 184.495 124.475 163.088 123.293 156.389C123.129 155.466 123.024 154.823 122.993 154.552C122.732 152.309 124.808 150.002 127.371 149.255C129.935 148.508 132.531 150.726 134.081 155.163C135.089 158.047 135.991 168.755 136.501 175.906Z" fill="#2B478B"/>
<path d="M136.501 175.905C136.774 179.762 136.935 182.583 136.935 182.583C132.685 185.296 128.634 184.494 128.634 184.494C128.634 184.494 124.475 163.088 123.293 156.389C123.312 155.71 123.325 155.308 123.327 155.256C123.38 155.679 125.896 175.211 136.501 175.905Z" fill="#233F77"/>
<path d="M121.733 184.363C120.115 184.374 118.51 184.078 117.003 183.492C117.003 183.492 115.687 174.231 114.9 166.31C114.946 166.528 117.674 179.842 121.733 184.363Z" fill="#233F77"/>
<path d="M137.523 125.544C139.665 129.902 142.667 136.662 142.44 142.391L139.847 141.089C139.906 141.036 139.969 140.986 140.033 140.94C142.679 139.037 137.651 125.871 137.523 125.544Z" fill="#C7DCF2"/>
<path d="M73.3379 112.036C72.4194 110.751 71.799 109.279 71.5213 107.727C71.0773 105.174 71.4198 98.9222 76.1594 99.2041C79.5305 99.4046 81.3739 98.5886 82.8622 99.4592C84.2278 100.257 86.184 102.569 85.8021 104.982C85.4201 107.395 83.1243 112.036 83.1243 112.036H73.3379Z" fill="#1B2E59"/>
<path d="M71.3113 187.239C71.3113 187.239 71.2817 183.454 72.9475 183.161C74.6134 182.868 77.0346 181.955 77.3672 187.239H71.3113Z" fill="#22356B"/>
<path d="M79.9078 187.239C79.9078 187.239 79.8782 183.454 81.5454 183.161C83.2126 182.868 85.6254 181.955 85.9651 187.239H79.9078Z" fill="#22356B"/>
<path d="M68.5377 146.889C67.5621 149.16 66.9194 151.559 66.6295 154.012H90.1569C90.1569 154.012 88.002 147.087 86.0698 146.321C84.1376 145.556 68.5377 146.889 68.5377 146.889Z" fill="#993530"/>
<path d="M97.2551 187.234C97.2256 187.236 97.1959 187.236 97.1663 187.234C97.0552 187.239 96.9457 187.207 96.8552 187.143C96.7647 187.078 96.6986 186.986 96.6674 186.879L91.0188 162.585L90.6087 160.815L92.5395 160.731L93.1709 164.043L97.5257 186.896C97.5314 186.936 97.5289 186.977 97.5182 187.016C97.5075 187.055 97.4889 187.092 97.4636 187.123C97.4383 187.155 97.4067 187.181 97.3709 187.2C97.335 187.219 97.2957 187.231 97.2551 187.234Z" fill="#E5BD9E"/>
<path d="M68.5496 160.819L67.6208 164.817L62.4894 186.885C62.4583 186.991 62.3921 187.083 62.3017 187.148C62.2112 187.212 62.1016 187.244 61.9906 187.239C61.961 187.241 61.9313 187.241 61.9017 187.239C61.8618 187.236 61.8229 187.224 61.7876 187.205C61.7522 187.186 61.721 187.16 61.6959 187.129C61.6708 187.098 61.6522 187.062 61.6413 187.024C61.6305 186.985 61.6275 186.945 61.6326 186.906L66.2735 162.535L66.6174 160.735L68.5496 160.819Z" fill="#E5BD9E"/>
<path d="M68.5496 160.819L67.6208 164.817C67.593 164.358 67.4565 163.913 67.2226 163.516C66.9888 163.119 66.664 162.783 66.2749 162.535L66.6188 160.735L68.5496 160.819Z" fill="#CC9E7F"/>
<path d="M93.1721 164.052C92.218 162.65 91.0581 162.65 91.0215 162.596L90.6113 160.826L92.5421 160.742L93.1721 164.052Z" fill="#CC9E7F"/>
<path d="M64.7076 160.995H92.68C93.3442 160.995 93.9812 160.733 94.4509 160.265C94.9205 159.798 95.1844 159.164 95.1844 158.504V156.504C95.1844 155.844 94.9205 155.21 94.4509 154.743C93.9812 154.275 93.3442 154.013 92.68 154.013H64.7076C64.0437 154.013 63.4071 154.275 62.9377 154.742C62.4683 155.209 62.2046 155.842 62.2046 156.503V158.504C62.2044 158.831 62.269 159.155 62.3947 159.457C62.5204 159.759 62.7048 160.034 62.9372 160.265C63.1696 160.497 63.4456 160.68 63.7494 160.805C64.0532 160.931 64.3788 160.995 64.7076 160.995Z" fill="#FF9924"/>
<path d="M88.4835 145.796C87.6548 141.206 85.242 135.982 85.242 135.982C86.9966 128.663 85.2039 120.433 85.2039 120.433C84.2382 120.174 83.2546 119.987 82.2612 119.872C82.1372 119.219 81.7821 117.254 81.6327 115.562C81.6158 115.366 81.6017 115.174 81.589 114.987C81.5595 114.562 81.5595 114.134 81.589 113.709L80.3516 113.79L75.2597 114.128L75.044 114.142C75.044 114.142 75.0751 114.596 75.0835 115.28C75.099 116.511 75.0384 118.48 74.5959 119.893C72.4044 120.119 70.9203 120.437 70.9203 120.437C69.487 120.68 69.7929 129.559 72.4706 136.461C73.7052 139.638 70.2157 144.555 70.2157 145.799C70.2157 147.043 88.7836 147.455 88.4835 145.796Z" fill="#FFB27D"/>
<path d="M81.634 115.56C81.1549 116.12 79.9499 117.323 78.4137 117.35C76.4138 117.385 75.0792 115.278 75.0792 115.278C75.1108 114.89 75.1697 114.505 75.2554 114.125L80.3473 113.787C80.7818 114.165 81.1967 114.565 81.5903 114.985C81.6002 115.171 81.6143 115.363 81.634 115.56Z" fill="#EF9E67"/>
<path d="M78.3743 116.158C77.0324 116.149 75.7488 115.611 74.8045 114.663C73.8602 113.714 73.3322 112.432 73.3359 111.097V106.878C73.3341 105.979 73.6899 105.116 74.3258 104.477C74.9617 103.838 75.8259 103.475 76.7296 103.468H79.785C80.6888 103.475 81.553 103.838 82.1889 104.477C82.8247 105.116 83.1806 105.979 83.1787 106.878V111.335C83.1802 112.608 82.6759 113.829 81.7758 114.732C80.8758 115.636 79.653 116.148 78.3743 116.158Z" fill="#FFB27D"/>
<path d="M76.7132 113.017C76.7132 113.017 76.8175 113.686 78.4523 113.709C78.4523 113.709 79.8264 113.728 79.8391 113.008C79.8391 113 78.5524 112.385 76.7132 113.017Z" fill="white"/>
<path d="M95.4652 142.391L91.0272 140.163L89.6926 139.492C89.2952 138.589 87.9605 135.764 87.1332 134.146C87.3193 134.955 87.5011 135.783 87.6772 136.609C87.7435 136.916 87.8069 137.222 87.8703 137.528C88.7808 141.898 89.4713 146.01 89.3642 146.89C89.119 148.895 81.3226 147.993 79.3129 147.51C77.3032 147.028 72.7341 148.131 69.0783 148.06C66.9769 148.022 67.621 142.139 68.5469 137.155C68.7668 135.96 69.0078 134.815 69.2277 133.816C68.0466 136.179 66.8318 138.672 66.5401 139.458L64.023 140.789L61.2396 142.259L61.1677 142.299C61.1614 142.287 61.1576 142.274 61.1564 142.261C60.9873 141.352 63.9074 124.455 67.7704 121.55C67.8849 121.45 68.0049 121.356 68.1298 121.269C69.649 120.225 71.5065 119.785 73.3359 120.035C73.3359 120.035 74.6043 122.307 78.2685 122.479C79.3237 122.538 80.3784 122.356 81.3522 121.948C82.326 121.539 83.1932 120.915 83.8876 120.122C83.8876 120.122 85.6816 120.167 87.0769 120.793C87.4945 120.967 87.8723 121.223 88.1874 121.547C89.4107 122.876 95.3412 134.264 95.4652 142.391Z" fill="#0052B4"/>
<path d="M89.8882 139.287C89.8882 139.287 83.5941 146.045 80.5274 148.321L81.5055 150.34C81.5055 150.34 91.2299 146.642 95.3311 141.453L89.8882 139.287Z" fill="#0052B4"/>
<path d="M81.3199 147.846C81.3199 147.846 78.731 148.574 78.3096 149.389C77.8882 150.203 78.0658 152.508 78.7183 152.124C79.3708 151.74 82.9745 149.361 82.9745 149.361L81.3199 147.846Z" fill="#0052B4"/>
<path d="M74.8824 118.558C74.8824 118.558 76.6004 121.95 78.2747 122.484C78.2747 122.484 75.8943 123.389 72.4245 119.973C72.6737 119.544 73.0319 119.187 73.4633 118.939C73.8946 118.69 74.3841 118.559 74.8824 118.558Z" fill="#233F77"/>
<path d="M82.0967 118.558C82.0967 118.558 79.9474 121.95 78.2746 122.484C78.2746 122.484 81.0848 123.389 84.5546 119.973C84.3054 119.544 83.9472 119.187 83.5158 118.939C83.0844 118.69 82.5951 118.559 82.0967 118.558Z" fill="#233F77"/>
<path d="M66.5539 139.287C66.5539 139.287 73.1045 145.794 76.2557 147.948L75.358 150.005C75.358 150.005 66.0648 146.83 61.7636 141.805L66.5539 139.287Z" fill="#FFB27D"/>
<path d="M73.9201 147.368C73.9201 147.368 76.5978 147.553 77.1785 148.257C77.7591 148.961 78.0495 151.263 77.3321 151.02C76.6148 150.778 72.6052 149.185 72.6052 149.185L73.9201 147.368Z" fill="#FFB27D"/>
<path d="M77.7574 129.443C77.7585 129.341 77.79 129.241 77.8478 129.157C77.9056 129.073 77.9872 129.007 78.0823 128.969C78.1775 128.931 78.2818 128.921 78.3823 128.942C78.4828 128.962 78.575 129.012 78.6471 129.085C78.7193 129.157 78.7683 129.249 78.7879 129.349C78.8075 129.45 78.7969 129.553 78.7574 129.648C78.7179 129.742 78.6512 129.822 78.5658 129.879C78.4804 129.936 78.3801 129.966 78.2775 129.966C78.2088 129.965 78.1409 129.952 78.0776 129.925C78.0143 129.899 77.9569 129.86 77.9086 129.811C77.8603 129.763 77.8221 129.705 77.7961 129.642C77.7702 129.579 77.7571 129.511 77.7574 129.443Z" fill="#C65447"/>
<path d="M77.7574 137.824C77.7585 137.722 77.79 137.622 77.8478 137.538C77.9056 137.454 77.9872 137.388 78.0823 137.35C78.1775 137.312 78.2818 137.302 78.3823 137.323C78.4828 137.343 78.575 137.393 78.6471 137.466C78.7193 137.538 78.7683 137.63 78.7879 137.731C78.8075 137.831 78.7969 137.934 78.7574 138.029C78.7179 138.123 78.6512 138.203 78.5658 138.26C78.4804 138.317 78.3801 138.347 78.2775 138.347C78.2088 138.346 78.1409 138.333 78.0776 138.306C78.0143 138.28 77.9569 138.241 77.9086 138.192C77.8603 138.144 77.8221 138.086 77.7961 138.023C77.7702 137.96 77.7571 137.892 77.7574 137.824Z" fill="#C65447"/>
<path d="M73.3346 106.878C73.3346 106.878 73.8081 105.253 74.9088 105.195C76.0095 105.138 79.6526 107.312 80.711 106.334C81.7694 105.355 82.5079 105.006 82.966 105.692C83.424 106.377 83.8031 102.29 83.6706 102.205C83.5382 102.119 74.7341 100.885 74.7341 100.885L72.2353 102.673L71.8548 105.197L73.3346 106.878Z" fill="#1B2E59"/>
<path d="M78.5332 183.719C78.5332 183.719 77.0323 184.345 74.7505 184.362C73.1327 184.373 71.5276 184.078 70.0208 183.492C70.0208 183.492 68.7059 174.231 67.9195 166.309C67.4727 161.805 67.1979 157.733 67.4319 156.045C68.0802 151.389 70.1885 148.698 72.8494 148.922C75.5102 149.147 77.9977 150.999 78.1837 153.246C78.3697 155.494 78.5332 183.719 78.5332 183.719Z" fill="#0052B4"/>
<path d="M87.6286 176.847C87.1523 180.684 86.7633 183.483 86.7633 183.483C82.0688 185.314 78.2509 183.737 78.2509 183.737C78.2509 183.737 78.3087 161.928 78.444 155.123C78.4624 154.188 78.4821 153.535 78.5046 153.263C78.6822 151.02 81.164 149.155 83.8234 148.916C86.4829 148.678 88.6011 151.367 89.2635 156.022C89.6947 159.053 88.5095 169.734 87.6286 176.847Z" fill="#0052B4"/>
<path d="M70.2095 130.298L69.223 133.816C68.042 136.178 66.8272 138.671 66.5354 139.458L64.0183 140.788L61.2349 142.259H61.1517C60.9826 141.351 63.9028 124.453 67.7658 121.548C67.8803 121.448 68.0002 121.354 68.1251 121.268C69.3724 123.633 71.6668 128.546 70.2095 130.298Z" fill="#35488B"/>
<path d="M68.5398 140.749L67.2968 141.839L64.0891 144.643C62.3148 144.503 61.0351 142.388 61.0351 142.388C61.6608 141.38 62.6178 140.647 63.5719 140.124C64.57 139.585 65.6421 139.193 66.7541 138.963L68.5398 140.749Z" fill="#35488B"/>
<path d="M68.5398 140.749L67.2968 141.838C65.1433 141.822 63.5705 140.127 63.5705 140.127C64.5686 139.587 65.6407 139.196 66.7527 138.966L68.5398 140.749Z" fill="#233F77"/>
<path d="M95.4652 142.391L92.8721 141.089L91.0272 140.163L89.6926 139.492C89.2952 138.589 87.9605 135.764 87.1332 134.146C87.3193 134.955 87.5011 135.783 87.6772 136.609L85.7521 129.443C84.8966 128.181 86.7034 122.038 87.0825 120.794C87.5002 120.968 87.878 121.225 88.1931 121.548C88.5863 121.977 89.4727 123.456 90.4945 125.538C92.6395 129.902 95.3821 136.894 95.4652 142.391Z" fill="#35488B"/>
<path d="M95.4652 142.391C95.4652 142.391 94.1827 144.506 92.4112 144.645L88.7639 141.453L87.9605 140.752L89.4798 139.022C90.3209 139.174 91.1441 139.412 91.9363 139.732C93.2004 140.239 94.6464 141.074 95.4652 142.391Z" fill="#35488B"/>
<path d="M91.9363 139.73C91.9363 139.73 90.2239 141.237 88.7639 141.453L87.9605 140.752L89.4798 139.022C90.3208 139.173 91.144 139.411 91.9363 139.73Z" fill="#233F77"/>
<path d="M87.625 176.847C87.1486 180.684 86.7597 183.482 86.7597 183.482C82.0652 185.314 78.2473 183.736 78.2473 183.736C78.2473 183.736 78.3051 161.927 78.4404 155.123C78.5912 154.463 78.6799 154.07 78.6926 154.02C78.663 154.446 77.3552 174.096 87.625 176.847Z" fill="#4395F2"/>
<path d="M74.7555 184.363C73.1377 184.374 71.5325 184.078 70.0258 183.492C70.0258 183.492 68.7109 174.231 67.9245 166.31C67.9611 166.528 70.6966 179.842 74.7555 184.363Z" fill="#4395F2"/>
<path d="M90.4973 125.544C92.6395 129.902 95.3821 136.901 95.4652 142.391L92.8721 141.089C92.9312 141.036 92.9934 140.986 93.0581 140.94C95.7034 139.037 90.6241 125.871 90.4973 125.544Z" fill="#233F77"/>
<path d="M287.42 187.234C287.391 187.236 287.361 187.236 287.331 187.234C287.22 187.239 287.111 187.207 287.02 187.143C286.93 187.078 286.864 186.986 286.833 186.879L281.185 162.585L280.775 160.815L282.707 160.731L283.335 164.052L287.689 186.906C287.694 186.945 287.69 186.985 287.679 187.023C287.668 187.06 287.649 187.096 287.624 187.126C287.599 187.157 287.568 187.182 287.533 187.2C287.498 187.219 287.46 187.23 287.42 187.234Z" fill="#E5BD9E"/>
<path d="M258.712 160.819L257.782 164.818L252.652 186.885C252.62 186.991 252.554 187.083 252.464 187.148C252.373 187.212 252.264 187.244 252.153 187.24C252.124 187.242 252.094 187.242 252.064 187.24C252.024 187.236 251.985 187.225 251.95 187.206C251.914 187.187 251.883 187.161 251.858 187.129C251.832 187.098 251.814 187.062 251.803 187.024C251.792 186.985 251.789 186.944 251.794 186.905L256.436 162.541L256.78 160.741L258.712 160.819Z" fill="#E5BD9E"/>
<path d="M258.712 160.819L257.782 164.817C257.754 164.358 257.618 163.913 257.384 163.516C257.15 163.119 256.825 162.783 256.436 162.535L256.78 160.735L258.712 160.819Z" fill="#CC9E7F"/>
<path d="M283.335 164.052C282.38 162.65 281.221 162.65 281.185 162.596L280.775 160.826L282.707 160.742L283.335 164.052Z" fill="#CC9E7F"/>
<path d="M254.875 160.993H282.847C283.512 160.993 284.149 160.73 284.618 160.263C285.088 159.796 285.352 159.162 285.352 158.501V156.502C285.352 155.841 285.088 155.207 284.618 154.74C284.149 154.273 283.512 154.01 282.847 154.01H254.875C254.211 154.01 253.575 154.273 253.105 154.74C252.636 155.207 252.372 155.84 252.372 156.5V158.501C252.372 158.828 252.436 159.152 252.562 159.454C252.688 159.757 252.872 160.031 253.105 160.263C253.337 160.494 253.613 160.678 253.917 160.803C254.221 160.928 254.546 160.993 254.875 160.993Z" fill="#C65447"/>
<path d="M268.523 98.8462C268.523 98.8462 263.371 97.7414 260.208 100.088C257.046 102.435 259.178 108.028 257.94 109.482C256.703 110.936 255.263 111.484 256.704 114.389C258.146 117.294 255.263 118.074 255.263 120.169C255.263 122.263 258.259 122.879 258.341 124.742C258.422 126.606 267.768 128.333 271.752 128.402C275.736 128.47 280.338 123.653 280.889 122.713C281.44 121.774 282.88 117.562 280.889 115.423C278.897 113.283 280.479 110.382 279.723 108.725C278.968 107.068 276.081 106.102 276.562 104.721C277.043 103.34 276.012 97.3264 268.523 98.8462Z" fill="#1B2E59"/>
<path d="M278.651 145.796C277.824 141.204 275.409 135.982 275.409 135.982C277.164 128.663 275.373 120.433 275.373 120.433C274.407 120.174 273.423 119.987 272.429 119.872C272.306 119.219 271.951 117.254 271.8 115.562C271.783 115.366 271.769 115.174 271.756 114.987C271.728 114.562 271.728 114.134 271.756 113.709L270.519 113.79L265.412 114.125L265.195 114.139C265.195 114.139 265.226 114.592 265.234 115.278C265.25 116.509 265.189 118.477 264.746 119.89C262.555 120.116 261.071 120.434 261.071 120.434C259.638 120.677 259.943 129.556 262.621 136.458C263.856 139.636 260.366 144.553 260.366 145.796C260.366 147.04 278.951 147.455 278.651 145.796Z" fill="#FFB27D"/>
<path d="M271.796 115.56C271.318 116.12 270.112 117.323 268.575 117.35C266.577 117.385 265.241 115.278 265.241 115.278C265.273 114.89 265.332 114.505 265.418 114.125L270.509 113.787C270.944 114.163 271.36 114.562 271.753 114.98C271.765 115.171 271.779 115.363 271.796 115.56Z" fill="#EF9E67"/>
<path d="M268.537 116.159C265.766 116.159 263.5 113.88 263.5 111.097V106.878C263.498 105.979 263.853 105.116 264.489 104.477C265.124 103.838 265.988 103.475 266.892 103.467H269.947C270.851 103.474 271.716 103.837 272.352 104.476C272.988 105.115 273.343 105.979 273.341 106.878V111.336C273.343 112.608 272.838 113.829 271.938 114.732C271.038 115.636 269.815 116.149 268.537 116.159Z" fill="#FFB27D"/>
<path d="M266.876 113.017C266.876 113.017 266.98 113.686 268.616 113.709C268.616 113.709 269.989 113.728 270.001 113.008C270.001 113 268.715 112.385 266.876 113.017Z" fill="white"/>
<path d="M268.716 102.081C268.716 102.081 268.278 107.311 263.642 108.425C259.007 109.54 263.049 99.5925 266.179 100.358C269.309 101.124 268.716 102.081 268.716 102.081Z" fill="#1B2E59"/>
<path d="M268.162 102.081C268.162 102.081 268.6 107.311 273.236 108.425C277.871 109.54 273.829 99.5925 270.699 100.358C267.569 101.124 268.162 102.081 268.162 102.081Z" fill="#1B2E59"/>
<path d="M254.842 154.013C254.842 154.013 258.231 146.129 261.334 144.588C264.438 143.047 276.793 144.416 278.648 145.797C280.503 147.178 282.876 154.013 282.876 154.013H254.842Z" fill="#22356B"/>
<path d="M257.942 154.012C257.942 154.012 259.15 149.283 261.839 149.077C264.528 148.871 268.117 151.371 269.394 150.698C270.671 150.025 273.105 148.336 275.365 148.767C277.626 149.197 281.027 154.012 281.027 154.012H257.942Z" fill="#1B2E59"/>
<path d="M269.994 183.805L266.787 183.847C266.787 183.847 265.284 178.709 263.623 172.712C263.469 172.151 263.31 171.582 263.153 171.009C261.781 166.009 260.386 160.702 259.703 157.427C259.54 156.642 259.422 155.932 259.353 155.287C258.707 149.658 261.23 149.19 261.834 149.078C262.507 148.956 266.626 147.055 268.929 154.406C269.705 156.882 270.809 163.704 270.395 170.078C269.996 176.205 269.994 183.805 269.994 183.805Z" fill="#FFB27D"/>
<path d="M277.496 170.432C276.16 177.401 274.663 184.003 274.663 184.003L270.941 183.636C270.941 183.636 270.703 177.715 270.132 171.185C270.087 170.666 270.091 170.141 270.073 169.615C269.891 164.659 269.761 159.534 269.837 156.35C270.029 148.527 273.134 148.678 273.816 148.713C274.498 148.748 278.94 147.847 279.504 155.526C279.693 158.024 278.658 164.366 277.496 170.432Z" fill="#FFB27D"/>
<path d="M263.621 172.712C263.467 172.151 263.308 171.581 263.151 171.008C261.779 166.008 260.383 160.702 259.701 157.426C259.538 156.641 259.419 155.932 259.35 155.287C259.421 155.52 263.945 170.275 268.472 171.371C271.376 172.075 267.1 172.497 263.621 172.712Z" fill="#EF9E67"/>
<path d="M270.132 171.185C270.112 170.665 270.091 170.14 270.073 169.615C269.891 164.658 269.761 159.534 269.838 156.35C269.838 156.35 270.765 169.853 275.371 170.888C278.415 171.573 273.684 171.388 270.132 171.185Z" fill="#EF9E67"/>
<path d="M277.498 170.432C276.738 174.388 275.929 178.224 275.369 180.807C274.947 182.77 274.665 184.005 274.665 184.005L270.719 183.701C270.719 183.701 270.376 177.714 270.399 170.073C270.929 170.317 272.134 170.578 274.559 170.559C275.386 170.552 276.359 170.516 277.498 170.432Z" fill="#E9F3FE"/>
<path d="M275.37 180.804C274.947 182.767 274.665 184.002 274.665 184.002L270.719 183.698C270.719 183.698 270.064 177.512 270.086 169.871C270.616 170.115 272.134 170.572 274.56 170.557C274.557 170.557 272.87 178.388 275.37 180.804Z" fill="#C7DCF2"/>
<path d="M274.925 186.083C274.925 186.24 274.925 186.386 274.925 186.513C274.924 186.583 274.908 186.651 274.879 186.714C274.851 186.777 274.81 186.834 274.758 186.881C274.707 186.928 274.647 186.964 274.582 186.987C274.516 187.011 274.446 187.021 274.377 187.017L270.572 186.77C270.436 186.761 270.31 186.7 270.219 186.599C270.129 186.499 270.082 186.366 270.088 186.232C270.102 185.99 270.129 185.749 270.167 185.51C270.251 184.968 270.4 184.438 270.61 183.931C270.64 183.859 270.686 183.795 270.744 183.744C270.803 183.692 270.873 183.655 270.948 183.635C272.882 183.134 274.065 183.635 274.49 183.885C274.547 183.916 274.596 183.959 274.636 184.01C274.676 184.062 274.706 184.12 274.722 184.183C274.868 184.806 274.936 185.444 274.925 186.083Z" fill="#35488B"/>
<path d="M274.57 184.047C274.57 184.047 274.148 183.255 272.888 183.035C272.521 182.97 272.144 182.996 271.79 183.111C271.437 183.226 271.117 183.426 270.86 183.694L270.636 183.869C270.671 183.827 271.54 182.59 272.923 182.832C273.313 182.887 273.682 183.04 273.996 183.277C274.31 183.513 274.558 183.825 274.717 184.183L274.57 184.047Z" fill="#35488B"/>
<path d="M274.926 186.083C274.926 186.24 274.926 186.386 274.926 186.513C274.925 186.582 274.909 186.651 274.88 186.714C274.852 186.777 274.811 186.834 274.76 186.881C274.708 186.928 274.648 186.964 274.583 186.987C274.517 187.011 274.448 187.021 274.378 187.017L270.573 186.77C270.437 186.761 270.311 186.7 270.22 186.599C270.13 186.498 270.083 186.366 270.089 186.231C270.104 185.99 270.13 185.749 270.168 185.509C270.168 185.509 270.367 186.388 272.683 186.508C274.076 186.578 274.675 186.306 274.926 186.083Z" fill="#22356B"/>
<path d="M269.994 183.804L266.753 184.32L265.925 184.46C265.925 184.46 264.99 177.708 263.153 171.015C265.507 171.264 267.887 170.942 270.089 170.077C270.354 176.899 269.994 183.804 269.994 183.804Z" fill="#E9F3FE"/>
<path d="M266.753 184.321L265.925 184.461C265.925 184.461 264.99 177.709 263.153 171.015C264.559 171.173 265.981 171.119 267.37 170.854C267.37 170.854 265.73 180.631 266.753 184.321Z" fill="#C7DCF2"/>
<path d="M270.609 185.615C270.643 185.769 270.671 185.911 270.695 186.035C270.708 186.103 270.708 186.173 270.694 186.241C270.68 186.308 270.652 186.373 270.613 186.43C270.573 186.486 270.523 186.535 270.465 186.572C270.406 186.61 270.341 186.635 270.272 186.647L266.504 187.233C266.37 187.253 266.233 187.221 266.124 187.142C266.014 187.063 265.94 186.945 265.917 186.812C265.878 186.573 265.852 186.332 265.838 186.09C265.803 185.542 265.835 184.993 265.931 184.452C265.945 184.376 265.976 184.303 266.022 184.24C266.068 184.177 266.128 184.126 266.198 184.089C267.978 183.182 269.242 183.416 269.71 183.565C269.772 183.584 269.83 183.615 269.879 183.656C269.929 183.698 269.97 183.749 270 183.806C270.276 184.382 270.481 184.989 270.609 185.615Z" fill="#35488B"/>
<path d="M269.825 183.706C269.825 183.699 269.248 183.023 267.964 183.083C267.592 183.099 267.229 183.207 266.908 183.396C266.587 183.585 266.318 183.85 266.125 184.167L265.943 184.386C265.97 184.337 266.554 182.94 267.954 182.876C268.346 182.846 268.739 182.915 269.097 183.078C269.454 183.241 269.764 183.492 269.997 183.807L269.825 183.706Z" fill="#35488B"/>
<path d="M270.609 185.615C270.643 185.769 270.671 185.911 270.695 186.036C270.708 186.104 270.708 186.173 270.694 186.241C270.68 186.309 270.652 186.373 270.613 186.43C270.573 186.487 270.523 186.535 270.465 186.573C270.406 186.61 270.341 186.635 270.272 186.647L266.504 187.233C266.37 187.254 266.233 187.221 266.124 187.143C266.014 187.064 265.94 186.945 265.917 186.812C265.878 186.573 265.852 186.332 265.838 186.09C265.838 186.09 266.22 186.906 268.508 186.511C269.886 186.284 270.412 185.889 270.609 185.615Z" fill="#22356B"/>
<path d="M285.633 142.391L281.198 140.162L279.861 139.492C279.465 138.589 278.129 135.764 277.304 134.146C277.557 135.256 277.805 136.402 278.039 137.527C278.95 141.898 279.64 146.01 279.533 146.89C279.288 148.895 271.5 147.992 269.483 147.51C267.466 147.028 262.903 148.131 259.249 148.061C257.146 148.022 257.791 142.139 258.717 137.154C258.937 135.96 259.177 134.814 259.397 133.816C258.216 136.177 257.001 138.671 256.709 139.458L254.192 140.789L251.337 142.299C251.331 142.287 251.327 142.274 251.325 142.261C251.153 141.363 254.075 124.455 257.939 121.547C258.714 120.931 259.608 120.479 260.565 120.22C261.522 119.96 262.523 119.899 263.505 120.038C263.505 120.038 264.773 122.308 268.437 122.479C269.492 122.538 270.547 122.357 271.521 121.949C272.495 121.541 273.362 120.917 274.056 120.125C274.056 120.125 277.12 120.201 278.356 121.547C279.592 122.893 285.51 134.263 285.633 142.391Z" fill="#0052B4"/>
<path d="M279.53 146.89C279.285 148.895 271.497 147.992 269.48 147.509C267.464 147.027 262.9 148.13 259.246 148.06C257.143 148.021 257.789 142.138 258.715 137.154C258.715 137.154 262.676 144.125 267.614 144.077C272.553 144.029 278.044 137.527 278.044 137.527C278.941 141.9 279.637 146.009 279.53 146.89Z" fill="#B5493F"/>
<path d="M280.124 139.459C280.124 139.459 272.654 144.882 269.216 146.524L269.791 148.696C269.791 148.696 280.492 146.565 285.508 142.262L280.124 139.459Z" fill="#0052B4"/>
<path d="M269.215 146.527C269.215 146.527 266.647 145.728 265.856 146.176C265.065 146.625 263.966 148.665 264.729 148.7C265.491 148.735 269.802 148.7 269.802 148.7L269.215 146.527Z" fill="#0052B4"/>
<path d="M265.049 118.558C265.049 118.558 266.767 121.95 268.441 122.484C268.441 122.484 266.061 123.389 262.591 119.973C262.84 119.544 263.199 119.187 263.63 118.939C264.061 118.691 264.551 118.56 265.049 118.558Z" fill="#E6F1FF"/>
<path d="M259.395 133.816C258.214 136.177 256.999 138.671 256.707 139.457L254.19 140.788C254.014 140.715 253.873 140.578 253.797 140.404C253.04 138.885 259.395 133.816 259.395 133.816Z" fill="#B5493F"/>
<path d="M272.189 118.531C272.189 118.531 270.115 121.951 268.44 122.481C268.44 122.481 271.138 123.577 274.608 120.162C274.608 120.169 273.956 118.569 272.189 118.531Z" fill="#E6F1FF"/>
<path d="M281.877 139.937C281.668 140.059 281.435 140.135 281.194 140.159L279.858 139.489C279.462 138.586 278.125 135.761 277.3 134.143C277.3 134.145 283.629 138.955 281.877 139.937Z" fill="#B5493F"/>
<path d="M256.706 139.459C256.706 139.459 264.175 144.882 267.614 146.524L267.039 148.696C267.039 148.696 256.338 146.565 251.322 142.262L256.706 139.459Z" fill="#FFB27D"/>
<path d="M267.616 146.527C267.616 146.527 270.184 145.728 270.974 146.176C271.765 146.625 272.864 148.665 272.102 148.7C271.339 148.735 267.028 148.7 267.028 148.7L267.616 146.527Z" fill="#FFB27D"/>
<path d="M258.702 140.749L257.459 141.839L254.253 144.643C252.477 144.503 251.197 142.39 251.197 142.39C251.825 141.382 252.78 140.648 253.734 140.125C254.732 139.586 255.804 139.195 256.917 138.964L258.702 140.749Z" fill="#E6F1FF"/>
<path d="M285.633 142.391C285.633 142.391 284.352 144.505 282.579 144.644L278.933 141.453L278.128 140.752L279.647 139.019C280.488 139.172 281.312 139.41 282.104 139.73C283.368 140.239 284.815 141.075 285.633 142.391Z" fill="#E6F1FF"/>
<path d="M282.104 139.73C282.104 139.73 280.391 141.237 278.933 141.453L278.128 140.752L279.647 139.019C280.488 139.172 281.312 139.41 282.104 139.73Z" fill="#C7DCF2"/>
<path d="M258.702 140.749L257.459 141.838C255.306 141.822 253.733 140.127 253.733 140.127C254.731 139.587 255.803 139.196 256.915 138.966L258.702 140.749Z" fill="#C7DCF2"/>
<path d="M268.199 122.469C268.199 122.415 268.216 122.363 268.246 122.318C268.276 122.274 268.319 122.239 268.369 122.219C268.419 122.198 268.474 122.193 268.527 122.204C268.58 122.214 268.628 122.24 268.666 122.279C268.704 122.317 268.73 122.365 268.741 122.418C268.751 122.471 268.746 122.525 268.725 122.575C268.704 122.624 268.669 122.667 268.624 122.697C268.579 122.726 268.526 122.742 268.472 122.742C268.4 122.742 268.33 122.713 268.279 122.662C268.228 122.611 268.199 122.541 268.199 122.469Z" fill="#35488B"/>
<path d="M267.92 129.443C267.921 129.341 267.952 129.241 268.01 129.156C268.067 129.072 268.149 129.006 268.244 128.968C268.339 128.929 268.443 128.92 268.544 128.94C268.645 128.96 268.737 129.01 268.809 129.083C268.881 129.155 268.931 129.247 268.95 129.348C268.97 129.448 268.959 129.552 268.92 129.646C268.88 129.74 268.814 129.821 268.728 129.877C268.643 129.934 268.543 129.964 268.44 129.964C268.302 129.964 268.169 129.908 268.072 129.81C267.974 129.713 267.92 129.58 267.92 129.443Z" fill="#A53D38"/>
<path d="M267.92 137.824C267.921 137.722 267.952 137.622 268.01 137.538C268.068 137.454 268.15 137.388 268.245 137.35C268.34 137.312 268.444 137.302 268.545 137.323C268.645 137.343 268.737 137.393 268.81 137.466C268.882 137.538 268.931 137.63 268.95 137.731C268.97 137.831 268.959 137.934 268.92 138.029C268.88 138.123 268.814 138.203 268.728 138.26C268.643 138.317 268.543 138.347 268.44 138.347C268.371 138.346 268.303 138.333 268.24 138.306C268.177 138.28 268.119 138.241 268.071 138.192C268.023 138.144 267.985 138.086 267.959 138.023C267.933 137.96 267.92 137.892 267.92 137.824Z" fill="#A53D38"/>
<path d="M162.685 98.7281C162.685 98.7281 156.214 97.3849 154.996 102.934C153.987 107.527 158.841 113.44 158.841 113.44H167.438C167.438 113.44 177.045 97.5952 162.685 98.7281Z" fill="#1B2E59"/>
<path d="M182.001 187.234C181.972 187.236 181.942 187.236 181.912 187.234C181.801 187.239 181.692 187.207 181.601 187.143C181.511 187.078 181.445 186.986 181.413 186.879L175.766 162.585L175.356 160.815L177.288 160.731L177.918 164.043L182.274 186.896C182.28 186.936 182.277 186.977 182.266 187.016C182.255 187.056 182.236 187.092 182.211 187.124C182.185 187.155 182.153 187.181 182.117 187.2C182.081 187.219 182.042 187.231 182.001 187.234Z" fill="#E5BD9E"/>
<path d="M153.293 160.819L152.363 164.818L147.233 186.885C147.202 186.991 147.136 187.084 147.045 187.148C146.955 187.212 146.845 187.245 146.734 187.24C146.705 187.242 146.675 187.242 146.645 187.24C146.605 187.236 146.566 187.225 146.531 187.206C146.495 187.187 146.464 187.161 146.439 187.129C146.413 187.098 146.395 187.062 146.384 187.024C146.373 186.985 146.37 186.944 146.375 186.905L151.017 162.541L151.361 160.741L153.293 160.819Z" fill="#E5BD9E"/>
<path d="M153.293 160.819L152.363 164.817C152.335 164.358 152.199 163.913 151.965 163.516C151.731 163.119 151.406 162.783 151.017 162.535L151.361 160.735L153.293 160.819Z" fill="#CC9E7F"/>
<path d="M177.916 164.052C176.962 162.65 175.802 162.65 175.767 162.596L175.356 160.826L177.289 160.742L177.916 164.052Z" fill="#CC9E7F"/>
<path d="M177.424 160.993H149.453C148.069 160.993 146.948 159.877 146.948 158.501V156.502C146.948 155.126 148.069 154.01 149.453 154.01H177.424C178.807 154.01 179.928 155.126 179.928 156.502V158.501C179.928 159.877 178.807 160.993 177.424 160.993Z" fill="#C65447"/>
<path d="M173.232 145.796C172.405 141.204 169.991 135.982 169.991 135.982C171.745 128.663 169.954 120.433 169.954 120.433C168.988 120.174 168.004 119.987 167.01 119.872C166.887 119.219 166.532 117.254 166.381 115.562C166.364 115.366 166.35 115.174 166.338 114.987C166.309 114.562 166.309 114.134 166.338 113.709L165.1 113.79L160.01 114.128L159.793 114.142C159.793 114.142 159.824 114.595 159.832 115.28C159.848 116.511 159.787 118.48 159.344 119.893C157.153 120.119 155.67 120.437 155.67 120.437C154.236 120.68 154.543 129.559 157.221 136.461C158.455 139.638 154.966 144.555 154.966 145.799C154.966 147.043 173.532 147.455 173.232 145.796Z" fill="#FFB27D"/>
<path d="M166.378 115.56C165.9 116.12 164.686 117.323 163.157 117.35C161.159 117.385 159.823 115.278 159.823 115.278C159.855 114.89 159.914 114.505 160 114.125L165.091 113.787C165.527 114.163 165.942 114.562 166.337 114.98C166.347 115.171 166.361 115.363 166.378 115.56Z" fill="#EF9E67"/>
<path d="M163.118 116.159C160.347 116.159 158.081 113.88 158.081 111.097V106.878C158.079 105.979 158.434 105.116 159.07 104.477C159.705 103.838 160.57 103.475 161.473 103.467H164.53C165.434 103.475 166.298 103.838 166.933 104.477C167.569 105.116 167.925 105.979 167.922 106.878V111.336C167.924 112.608 167.42 113.829 166.519 114.732C165.619 115.636 164.397 116.149 163.118 116.159Z" fill="#FFB27D"/>
<path d="M149.424 154.013C149.424 154.013 152.806 146.129 155.916 144.588C159.027 143.047 171.375 144.416 173.23 145.797C175.085 147.178 177.458 154.013 177.458 154.013H149.424Z" fill="#22356B"/>
<path d="M152.517 154.012C152.517 154.012 153.725 149.283 156.416 149.077C159.106 148.871 162.694 151.371 163.97 150.698C165.245 150.025 167.68 148.336 169.941 148.767C172.202 149.197 175.604 154.012 175.604 154.012H152.517Z" fill="#1B2E59"/>
<path d="M164.576 183.805L161.369 183.847C161.369 183.847 159.866 178.709 158.205 172.712C158.051 172.151 157.892 171.582 157.736 171.009C156.363 166.009 154.968 160.702 154.285 157.427C154.122 156.642 154.004 155.932 153.935 155.287C153.289 149.658 155.812 149.19 156.416 149.078C157.089 148.956 161.208 147.055 163.511 154.406C164.288 156.882 165.391 163.704 164.977 170.078C164.578 176.205 164.576 183.805 164.576 183.805Z" fill="#FFB27D"/>
<path d="M172.078 170.432C170.742 177.401 169.246 184.003 169.246 184.003L165.523 183.636C165.523 183.636 165.285 177.715 164.715 171.185C164.669 170.666 164.674 170.141 164.655 169.615C164.474 164.659 164.344 159.534 164.42 156.35C164.612 148.527 167.716 148.678 168.399 148.713C169.081 148.748 173.524 147.847 174.092 155.526C174.275 158.024 173.242 164.366 172.078 170.432Z" fill="#FFB27D"/>
<path d="M158.202 172.712C158.048 172.151 157.889 171.581 157.732 171.008C156.36 166.008 154.964 160.702 154.282 157.426C154.119 156.641 154 155.932 153.931 155.287C154.002 155.52 158.526 170.275 163.053 171.371C165.957 172.075 161.683 172.497 158.202 172.712Z" fill="#EF9E67"/>
<path d="M164.713 171.185C164.694 170.665 164.672 170.14 164.654 169.615C164.472 164.658 164.343 159.534 164.419 156.35C164.419 156.35 165.346 169.853 169.952 170.888C172.996 171.573 168.265 171.388 164.713 171.185Z" fill="#EF9E67"/>
<path d="M172.075 170.432C171.315 174.388 170.506 178.224 169.947 180.807C169.524 182.77 169.242 184.005 169.242 184.005L165.296 183.701C165.296 183.701 164.953 177.714 164.976 170.073C165.506 170.317 166.712 170.578 169.136 170.559C169.964 170.552 170.936 170.516 172.075 170.432Z" fill="#E9F3FE"/>
<path d="M169.946 180.804C169.523 182.767 169.242 184.002 169.242 184.002L165.295 183.698C165.295 183.698 164.64 177.512 164.663 169.871C165.193 170.115 166.712 170.572 169.136 170.557C169.133 170.557 167.446 178.388 169.946 180.804Z" fill="#C7DCF2"/>
<path d="M169.506 186.083C169.506 186.24 169.506 186.386 169.506 186.513C169.505 186.583 169.489 186.651 169.46 186.714C169.432 186.777 169.391 186.834 169.339 186.881C169.288 186.928 169.228 186.964 169.163 186.987C169.097 187.011 169.027 187.021 168.958 187.017L165.153 186.77C165.017 186.762 164.891 186.7 164.8 186.6C164.71 186.499 164.663 186.366 164.671 186.232C164.715 185.441 164.891 184.664 165.192 183.931C165.222 183.859 165.268 183.795 165.326 183.744C165.384 183.692 165.454 183.655 165.529 183.635C167.463 183.134 168.647 183.635 169.071 183.885C169.128 183.916 169.177 183.959 169.217 184.01C169.257 184.062 169.287 184.12 169.303 184.183C169.449 184.806 169.517 185.444 169.506 186.083Z" fill="#35488B"/>
<path d="M169.152 184.047C169.152 184.047 168.729 183.255 167.469 183.035C167.102 182.97 166.725 182.996 166.372 183.111C166.018 183.226 165.698 183.426 165.441 183.694L165.217 183.869C165.253 183.827 166.122 182.59 167.504 182.832C167.894 182.887 168.263 183.04 168.577 183.277C168.891 183.513 169.139 183.825 169.298 184.183L169.152 184.047Z" fill="#35488B"/>
<path d="M169.502 186.083C169.502 186.24 169.502 186.386 169.502 186.513C169.501 186.582 169.485 186.651 169.457 186.714C169.428 186.777 169.387 186.834 169.336 186.881C169.285 186.928 169.224 186.964 169.159 186.987C169.093 187.011 169.024 187.021 168.954 187.017L165.149 186.77C165.014 186.761 164.887 186.7 164.797 186.599C164.706 186.498 164.66 186.366 164.667 186.231C164.68 185.989 164.706 185.748 164.745 185.509C164.745 185.509 164.943 186.388 167.26 186.508C168.654 186.578 169.252 186.306 169.502 186.083Z" fill="#22356B"/>
<path d="M164.575 183.804L161.333 184.32L160.506 184.46C160.506 184.46 159.57 177.708 157.734 171.015C160.088 171.264 162.468 170.942 164.671 170.077C164.934 176.899 164.575 183.804 164.575 183.804Z" fill="#E9F3FE"/>
<path d="M161.334 184.321L160.507 184.461C160.507 184.461 159.571 177.709 157.734 171.015C159.14 171.173 160.562 171.119 161.951 170.854C161.951 170.854 160.311 180.631 161.334 184.321Z" fill="#C7DCF2"/>
<path d="M165.19 185.615C165.224 185.769 165.252 185.911 165.276 186.035C165.289 186.103 165.289 186.173 165.275 186.241C165.261 186.308 165.233 186.373 165.194 186.43C165.155 186.486 165.104 186.535 165.046 186.572C164.987 186.61 164.922 186.635 164.853 186.647L161.085 187.233C160.951 187.253 160.815 187.221 160.705 187.142C160.595 187.063 160.521 186.945 160.498 186.812C160.46 186.573 160.433 186.332 160.42 186.09C160.384 185.542 160.416 184.993 160.513 184.452C160.526 184.376 160.558 184.303 160.604 184.24C160.65 184.177 160.71 184.126 160.779 184.089C162.559 183.182 163.823 183.416 164.291 183.565C164.353 183.584 164.411 183.615 164.461 183.657C164.511 183.698 164.552 183.749 164.583 183.806C164.858 184.382 165.062 184.99 165.19 185.615Z" fill="#35488B"/>
<path d="M164.404 183.706C164.404 183.699 163.827 183.023 162.543 183.083C162.172 183.101 161.811 183.208 161.491 183.397C161.172 183.586 160.904 183.851 160.711 184.167L160.529 184.386C160.556 184.337 161.14 182.94 162.541 182.876C162.932 182.846 163.326 182.915 163.683 183.078C164.04 183.241 164.35 183.492 164.583 183.807L164.404 183.706Z" fill="#35488B"/>
<path d="M165.19 185.615C165.224 185.769 165.252 185.911 165.276 186.036C165.289 186.104 165.289 186.173 165.275 186.241C165.261 186.309 165.233 186.373 165.194 186.43C165.155 186.487 165.104 186.535 165.046 186.573C164.987 186.61 164.922 186.635 164.853 186.647L161.085 187.233C160.951 187.254 160.815 187.221 160.705 187.143C160.595 187.064 160.521 186.945 160.498 186.812C160.46 186.573 160.433 186.332 160.42 186.09C160.42 186.09 160.801 186.906 163.089 186.511C164.467 186.284 164.993 185.889 165.19 185.615Z" fill="#22356B"/>
<path d="M180.209 142.391L175.771 140.162L174.436 139.492C174.04 138.589 172.704 135.764 171.878 134.146C172.132 135.256 172.381 136.402 172.614 137.527C173.524 141.898 174.215 146.01 174.108 146.89C173.863 148.895 166.068 147.992 164.058 147.51C162.048 147.028 157.478 148.131 153.823 148.061C151.721 148.022 152.366 142.139 153.292 137.154C153.512 135.96 153.751 134.814 153.971 133.816C152.79 136.177 151.575 138.671 151.284 139.458L148.767 140.789L145.913 142.299C145.906 142.287 145.902 142.274 145.9 142.261C145.728 141.363 148.65 124.455 152.514 121.547C153.289 120.931 154.183 120.479 155.14 120.22C156.097 119.96 157.097 119.899 158.08 120.038C158.08 120.038 159.348 122.308 163.012 122.479C164.067 122.538 165.122 122.357 166.095 121.949C167.069 121.541 167.937 120.917 168.631 120.125C168.631 120.125 171.694 120.201 172.93 121.547C174.166 122.893 180.086 134.263 180.209 142.391Z" fill="#0052B4"/>
<path d="M174.112 146.89C173.867 148.895 166.072 147.992 164.062 147.509C162.053 147.027 157.482 148.13 153.828 148.06C151.725 148.021 152.371 142.138 153.297 137.154C153.297 137.154 157.258 144.125 162.196 144.077C167.135 144.029 172.626 137.527 172.626 137.527C173.525 141.9 174.219 146.009 174.112 146.89Z" fill="#B5493F"/>
<path d="M174.706 139.459C174.706 139.459 167.236 144.882 163.798 146.524L164.373 148.696C164.373 148.696 175.074 146.565 180.089 142.262L174.706 139.459Z" fill="#FFB27D"/>
<path d="M163.798 146.527C163.798 146.527 161.23 145.728 160.439 146.176C159.649 146.625 158.55 148.665 159.305 148.7C160.06 148.735 164.379 148.7 164.379 148.7L163.798 146.527Z" fill="#0052B4"/>
<path d="M159.626 118.558C159.626 118.558 161.345 121.95 163.018 122.484C163.018 122.484 160.638 123.389 157.168 119.973C157.418 119.544 157.776 119.187 158.207 118.939C158.638 118.691 159.128 118.56 159.626 118.558Z" fill="#E6F1FF"/>
<path d="M153.972 133.816C152.791 136.177 151.576 138.671 151.284 139.457L148.767 140.788C148.591 140.715 148.45 140.577 148.374 140.404C147.617 138.885 153.972 133.816 153.972 133.816Z" fill="#B5493F"/>
<path d="M166.842 118.558C166.842 118.558 164.693 121.95 163.018 122.484C163.018 122.484 165.828 123.389 169.298 119.973C169.049 119.544 168.691 119.187 168.26 118.939C167.829 118.691 167.34 118.559 166.842 118.558Z" fill="#E6F1FF"/>
<path d="M176.458 139.937C176.249 140.059 176.015 140.135 175.773 140.159L174.439 139.489C174.043 138.586 172.707 135.761 171.881 134.143C171.881 134.145 178.21 138.955 176.458 139.937Z" fill="#B5493F"/>
<path d="M151.287 139.459C151.287 139.459 158.757 144.882 162.196 146.524L161.621 148.696C161.621 148.696 150.92 146.565 145.904 142.262L151.287 139.459Z" fill="#FFB27D"/>
<path d="M162.193 146.527C162.193 146.527 164.761 145.728 165.551 146.176C166.342 146.625 167.441 148.665 166.679 148.7C165.916 148.735 161.605 148.7 161.605 148.7L162.193 146.527Z" fill="#FFB27D"/>
<path d="M153.283 140.749L152.04 141.839L148.834 144.643C147.058 144.503 145.779 142.39 145.779 142.39C146.406 141.382 147.361 140.648 148.315 140.125C149.314 139.586 150.386 139.195 151.498 138.964L153.283 140.749Z" fill="#E6F1FF"/>
<path d="M180.209 142.391C180.209 142.391 178.928 144.505 177.155 144.644L173.509 141.453L172.704 140.752L174.225 139.019C175.066 139.172 175.89 139.41 176.683 139.73C177.944 140.239 179.391 141.075 180.209 142.391Z" fill="#E6F1FF"/>
<path d="M176.685 139.73C176.685 139.73 174.971 141.237 173.512 141.453L172.708 140.752L174.228 139.019C175.069 139.172 175.893 139.41 176.685 139.73Z" fill="#C7DCF2"/>
<path d="M153.283 140.749L152.04 141.838C149.887 141.822 148.314 140.127 148.314 140.127C149.312 139.587 150.384 139.196 151.496 138.966L153.283 140.749Z" fill="#C7DCF2"/>
<path d="M162.78 122.469C162.78 122.415 162.797 122.363 162.827 122.318C162.857 122.274 162.9 122.239 162.95 122.219C163 122.198 163.055 122.193 163.108 122.204C163.161 122.214 163.209 122.24 163.247 122.279C163.286 122.317 163.311 122.365 163.322 122.418C163.332 122.471 163.327 122.525 163.306 122.575C163.285 122.624 163.25 122.667 163.205 122.697C163.16 122.726 163.108 122.742 163.054 122.742C162.982 122.74 162.913 122.711 162.862 122.66C162.811 122.609 162.782 122.541 162.78 122.469Z" fill="#35488B"/>
<path d="M162.501 129.443C162.502 129.341 162.533 129.241 162.591 129.156C162.648 129.072 162.73 129.006 162.825 128.968C162.92 128.929 163.025 128.92 163.125 128.94C163.226 128.96 163.318 129.01 163.39 129.083C163.463 129.155 163.512 129.247 163.531 129.348C163.551 129.448 163.541 129.552 163.501 129.646C163.462 129.74 163.395 129.821 163.31 129.877C163.224 129.934 163.124 129.964 163.021 129.964C162.883 129.964 162.75 129.908 162.653 129.81C162.555 129.713 162.501 129.58 162.501 129.443Z" fill="#A53D38"/>
<path d="M162.501 137.824C162.502 137.722 162.534 137.622 162.591 137.538C162.649 137.454 162.731 137.388 162.826 137.35C162.921 137.312 163.025 137.302 163.126 137.323C163.226 137.343 163.319 137.393 163.391 137.466C163.463 137.538 163.512 137.63 163.532 137.731C163.551 137.831 163.541 137.934 163.501 138.029C163.461 138.123 163.395 138.203 163.309 138.26C163.224 138.317 163.124 138.347 163.021 138.347C162.952 138.346 162.885 138.333 162.821 138.306C162.758 138.28 162.701 138.241 162.652 138.192C162.604 138.144 162.566 138.086 162.54 138.023C162.514 137.96 162.501 137.892 162.501 137.824Z" fill="#A53D38"/>
<path d="M156.442 104.987C156.442 104.987 150.313 105.613 151.943 111.577C153.574 117.541 152.737 118.564 152.737 118.564C153.214 118.537 153.665 118.338 154.005 118.003C154.005 118.003 153.723 118.454 152.659 120.13C150.414 123.673 156.132 125.748 156.132 125.748C156.132 125.748 155.219 123.409 156.767 122.59C159.727 121.023 160.974 116.95 159.118 115.15C154.861 111.019 156.442 104.987 156.442 104.987Z" fill="#1B2E59"/>
<path d="M169.292 104.987C169.292 104.987 175.423 105.613 173.792 111.577C172.162 117.541 172.997 118.564 172.997 118.564C172.52 118.537 172.069 118.338 171.729 118.003C171.729 118.003 172.011 118.454 173.076 120.13C175.321 123.673 169.602 125.748 169.602 125.748C169.602 125.748 170.516 123.409 168.968 122.59C166.008 121.023 164.76 116.95 166.617 115.15C170.881 111.019 169.292 104.987 169.292 104.987Z" fill="#1B2E59"/>
<path d="M158.082 107.996C158.082 107.996 161.408 108.348 162.52 107.614C162.52 107.614 163.25 105.411 162.52 104.836C162.52 104.836 163.885 106.018 163.63 107.581C163.63 107.581 165.704 107.518 166.167 107.263C166.167 107.263 166.026 106.273 165.753 105.861C165.753 105.861 166.466 106.659 166.624 107.234C166.624 107.234 168.149 107.394 168.466 106.813C168.783 106.233 166.021 99.242 161.636 101.195C157.252 103.148 156.82 106.784 158.082 107.996Z" fill="#1B2E59"/>
<path d="M154.884 104.849C154.884 104.849 154.25 105.23 154.292 105.636C154.334 106.041 155.831 107.444 155.831 107.444L154.884 104.849Z" fill="#C65447"/>
<path d="M170.54 104.849C170.54 104.849 171.173 105.23 171.131 105.636C171.088 106.041 169.593 107.444 169.593 107.444L170.54 104.849Z" fill="#C65447"/>
<path d="M44.8572 99.9791C44.8572 99.9791 41.2874 97.9055 38.7971 99.3706C36.3068 100.836 33.2682 109.997 33.7347 111.874C34.2012 113.752 36.2265 115.159 36.2265 115.159C36.2265 115.159 35.9347 114.049 36.2265 113.273C36.2265 113.273 36.5238 115.409 38.1319 116.078C39.7399 116.746 45.7719 117.24 47.0107 116.938C48.4327 116.591 49.2882 116.129 49.8899 114.537C50.4917 112.944 54.2124 98.5476 44.8572 99.9791Z" fill="#1B2E59"/>
<path d="M61.6975 187.234C61.6679 187.236 61.6382 187.236 61.6087 187.234C61.4976 187.239 61.388 187.207 61.2976 187.143C61.2071 187.078 61.141 186.986 61.1098 186.879L55.4612 162.585L55.0511 160.815L56.9819 160.731L57.6132 164.043L61.9681 186.896C61.9736 186.936 61.9708 186.977 61.9601 187.016C61.9493 187.055 61.9307 187.091 61.9054 187.123C61.8801 187.154 61.8487 187.18 61.8129 187.2C61.7772 187.219 61.7379 187.23 61.6975 187.234Z" fill="#E5BD9E"/>
<path d="M32.9868 160.819L32.0581 164.818L26.9267 186.885C26.8955 186.991 26.8294 187.084 26.7389 187.148C26.6484 187.213 26.5389 187.245 26.4278 187.24C26.3982 187.242 26.3685 187.242 26.339 187.24C26.2989 187.236 26.2599 187.225 26.2244 187.206C26.189 187.187 26.1577 187.161 26.1326 187.129C26.1074 187.098 26.0889 187.062 26.0781 187.023C26.0673 186.985 26.0645 186.944 26.0698 186.905L30.7107 162.541L31.056 160.741L32.9868 160.819Z" fill="#E5BD9E"/>
<path d="M32.9868 160.819L32.0581 164.817C32.0298 164.358 31.8931 163.912 31.659 163.516C31.4248 163.119 31.1 162.783 30.7107 162.535L31.056 160.735L32.9868 160.819Z" fill="#CC9E7F"/>
<path d="M57.6093 164.052C56.6537 162.65 55.4953 162.65 55.4586 162.596L55.0485 160.826L56.9793 160.742L57.6093 164.052Z" fill="#CC9E7F"/>
<path d="M57.1221 160.993H29.1511C27.768 160.993 26.6467 159.877 26.6467 158.501V156.502C26.6467 155.126 27.768 154.01 29.1511 154.01H57.1221C58.5053 154.01 59.6265 155.126 59.6265 156.502V158.501C59.6265 159.877 58.5053 160.993 57.1221 160.993Z" fill="#C65447"/>
<path d="M52.9256 145.796C52.0969 141.204 49.6842 135.982 49.6842 135.982C51.4402 128.663 49.6475 120.433 49.6475 120.433C48.6818 120.174 47.6982 119.987 46.7048 119.872C46.5808 119.219 46.2256 117.254 46.0748 115.562C46.0593 115.366 46.0452 115.174 46.0326 114.987C46.0039 114.562 46.0039 114.134 46.0326 113.709L44.7966 113.79L39.7047 114.128L39.489 114.142C39.489 114.142 39.52 114.595 39.5285 115.28C39.544 116.511 39.4834 118.48 39.0395 119.893C36.8494 120.119 35.3653 120.437 35.3653 120.437C33.932 120.68 34.2379 129.559 36.9156 136.461C38.1488 139.638 34.6607 144.555 34.6607 145.799C34.6607 147.043 53.2244 147.455 52.9256 145.796Z" fill="#FFB27D"/>
<path d="M46.0704 115.56C45.5927 116.12 44.3877 117.323 42.8515 117.35C40.8517 117.385 39.517 115.278 39.517 115.278C39.5485 114.89 39.6074 114.505 39.6932 114.125L44.7851 113.787C45.2196 114.165 45.6345 114.565 46.0282 114.985C46.0409 115.171 46.0549 115.363 46.0704 115.56Z" fill="#EF9E67"/>
<path d="M42.0016 116.13C39.2675 115.68 37.3973 113.063 37.8441 110.315L38.5206 106.147C38.663 105.26 39.1533 104.466 39.8839 103.938C40.6145 103.411 41.5257 103.193 42.4174 103.333L45.4333 103.828C46.3245 103.982 47.1186 104.48 47.643 105.213C48.1673 105.946 48.3796 106.856 48.2337 107.744L47.5178 112.139C47.3181 113.396 46.6249 114.523 45.5904 115.271C44.5559 116.019 43.265 116.328 42.0016 116.13Z" fill="#FFB27D"/>
<path d="M40.8697 112.758C40.8697 112.758 40.8697 113.435 42.4763 113.723C42.4763 113.723 43.8279 113.965 43.9575 113.25C43.9575 113.25 42.7864 112.434 40.8697 112.758Z" fill="white"/>
<path d="M29.1198 154.013C29.1198 154.013 32.5092 146.129 35.6126 144.588C38.7159 143.047 51.073 144.416 52.9276 145.797C54.7823 147.178 57.1556 154.013 57.1556 154.013H29.1198Z" fill="#22356B"/>
<path d="M32.2101 154.012C32.2101 154.012 33.4193 149.283 36.1083 149.077C38.7973 148.871 42.3869 151.371 43.6623 150.698C44.9378 150.025 47.3745 148.336 49.6351 148.767C51.8956 149.197 55.2964 154.012 55.2964 154.012H32.2101Z" fill="#1B2E59"/>
<path d="M52.4979 169.875C52.4471 176.97 52.1709 183.735 52.1709 183.735L48.446 184.054C48.446 184.054 47.1381 178.277 45.3948 171.959C45.2539 171.459 45.1651 170.942 45.0509 170.427C43.9756 165.587 42.9186 160.572 42.4169 157.427C41.1894 149.699 44.2687 149.28 44.9452 149.19C45.6217 149.1 49.83 147.401 51.7777 154.847C52.4105 157.266 52.5401 163.696 52.4979 169.875Z" fill="#FFB27D"/>
<path d="M45.3958 171.959C45.2812 171.452 45.1665 170.941 45.0519 170.426C43.9766 165.586 42.9196 160.571 42.4179 157.426C42.4179 157.426 45.7763 170.534 50.492 170.709C53.6094 170.827 48.9248 171.51 45.3958 171.959Z" fill="#EF9E67"/>
<path d="M52.5002 169.873C52.4721 173.902 52.3692 177.822 52.2874 180.46C52.2254 182.468 52.1733 183.734 52.1733 183.734L48.2356 184.155C48.2356 184.155 46.815 178.332 45.4522 170.814C46.0159 170.954 47.2505 170.994 49.6308 170.534C50.4468 170.377 51.3967 170.162 52.5002 169.873Z" fill="#E9F3FE"/>
<path d="M52.2861 180.457C52.2241 182.464 52.172 183.73 52.172 183.73L48.2343 184.151C48.2343 184.151 46.4698 178.189 45.1084 170.672C45.6721 170.812 47.2492 170.99 49.6295 170.531C49.6295 170.533 49.39 178.543 52.2861 180.457Z" fill="#C7DCF2"/>
<path d="M52.8056 185.733C52.8338 185.887 52.8577 186.03 52.8775 186.154C52.8884 186.222 52.8854 186.292 52.8686 186.359C52.8519 186.427 52.8217 186.49 52.7799 186.545C52.7381 186.601 52.6855 186.647 52.6253 186.682C52.5651 186.717 52.4984 186.739 52.4293 186.748L48.6438 187.202C48.5091 187.219 48.3733 187.182 48.266 187.099C48.1588 187.016 48.0889 186.895 48.0717 186.761C47.9734 185.975 48.0058 185.178 48.1675 184.402C48.1839 184.326 48.2179 184.254 48.2668 184.193C48.3157 184.132 48.3782 184.082 48.4493 184.049C50.2603 183.208 51.5146 183.488 51.9727 183.648C52.0341 183.669 52.0907 183.702 52.1391 183.745C52.1875 183.788 52.2267 183.841 52.2545 183.899C52.5128 184.486 52.6979 185.102 52.8056 185.733Z" fill="#35488B"/>
<path d="M52.0936 183.797C52.0936 183.797 51.5398 183.096 50.2545 183.108C49.8818 183.111 49.5157 183.206 49.1887 183.384C48.8617 183.562 48.5839 183.817 48.38 184.128L48.1912 184.341C48.2194 184.293 48.8494 182.918 50.2531 182.902C50.6458 182.885 51.0363 182.968 51.3877 183.143C51.7392 183.319 52.0399 183.58 52.2614 183.903L52.0936 183.797Z" fill="#35488B"/>
<path d="M52.8056 185.732C52.8338 185.886 52.8577 186.029 52.8775 186.153C52.8884 186.221 52.8854 186.291 52.8686 186.359C52.8519 186.426 52.8217 186.489 52.7799 186.545C52.7381 186.6 52.6855 186.646 52.6253 186.681C52.5651 186.716 52.4984 186.739 52.4293 186.747L48.6438 187.202C48.5091 187.218 48.3733 187.181 48.266 187.098C48.1588 187.016 48.0889 186.894 48.0717 186.76C48.0408 186.519 48.0229 186.278 48.0181 186.035C48.0181 186.035 48.3718 186.865 50.6705 186.557C52.0601 186.374 52.5998 185.999 52.8056 185.732Z" fill="#22356B"/>
<path d="M38.3275 184.452L35.227 183.622C35.227 183.622 35.1607 178.266 35.1706 172.041C35.1706 171.459 35.1706 170.868 35.1706 170.274C35.1917 165.086 35.2721 159.599 35.4948 156.26C35.5483 155.46 35.6286 154.745 35.7315 154.105C36.6222 148.51 39.1773 148.743 39.789 148.799C40.4683 148.863 44.9471 148.149 45.1923 155.847C45.2755 158.441 44.5046 165.309 42.3948 171.334C40.3696 177.133 38.3275 184.452 38.3275 184.452Z" fill="#FFB27D"/>
<path d="M35.1679 172.044C35.1679 171.463 35.1679 170.872 35.1679 170.278C35.189 165.09 35.2694 159.603 35.4921 156.264C35.5456 155.464 35.6259 154.749 35.7288 154.109C35.7288 154.352 36.1291 169.787 40.1936 172.07C42.8065 173.531 38.5799 172.781 35.1679 172.044Z" fill="#EF9E67"/>
<path d="M38.3265 184.451L35.0654 184.068L34.2338 183.972C34.2338 183.972 35.1457 177.215 35.1753 170.273C36.4857 170.806 37.8692 171.139 39.2792 171.262C40.337 171.328 41.3986 171.301 42.4517 171.182C40.8718 177.831 38.3265 184.451 38.3265 184.451Z" fill="#E9F3FE"/>
<path d="M35.0627 184.068L34.2312 183.972C34.2312 183.972 35.1431 177.215 35.1726 170.273C36.4831 170.806 37.8665 171.139 39.2766 171.262C39.2766 171.262 35.0698 180.236 35.0627 184.068Z" fill="#C7DCF2"/>
<path d="M38.571 186.266C38.5823 186.423 38.5893 186.568 38.5936 186.697C38.5964 186.766 38.5852 186.835 38.5607 186.9C38.5362 186.965 38.4989 187.024 38.4509 187.074C38.4029 187.124 38.3453 187.164 38.2814 187.192C38.2176 187.22 38.1488 187.234 38.0791 187.235H34.2655C34.1301 187.235 34.0002 187.182 33.9037 187.088C33.8072 186.993 33.7519 186.865 33.7497 186.73C33.7467 186.487 33.757 186.244 33.7807 186.003C33.8291 185.456 33.9431 184.918 34.1203 184.399C34.1453 184.325 34.1868 184.258 34.2418 184.204C34.2968 184.149 34.3637 184.107 34.4374 184.082C36.3344 183.455 37.5478 183.88 37.9875 184.097C38.0461 184.125 38.0985 184.164 38.1418 184.212C38.185 184.261 38.2184 184.317 38.2398 184.378C38.427 184.991 38.5382 185.626 38.571 186.266Z" fill="#35488B"/>
<path d="M38.0864 184.259C38.0864 184.259 37.6185 183.496 36.3402 183.36C35.97 183.319 35.5952 183.369 35.2494 183.507C34.9036 183.645 34.5976 183.866 34.3587 184.151L34.1473 184.34C34.1811 184.295 34.9675 183.004 36.3627 183.154C36.755 183.183 37.1332 183.312 37.4616 183.527C37.7901 183.743 38.058 184.038 38.24 184.385L38.0864 184.259Z" fill="#35488B"/>
<path d="M38.571 186.266C38.5823 186.423 38.5893 186.568 38.5936 186.697C38.5964 186.766 38.5852 186.835 38.5607 186.9C38.5362 186.965 38.4989 187.024 38.4509 187.074C38.4029 187.124 38.3453 187.165 38.2814 187.192C38.2176 187.22 38.1488 187.234 38.0791 187.235H34.2655C34.1301 187.235 34.0002 187.182 33.9037 187.088C33.8072 186.993 33.7519 186.865 33.7497 186.73C33.7467 186.487 33.757 186.245 33.7807 186.003C33.7807 186.003 34.0358 186.869 36.3555 186.834C37.7564 186.816 38.3356 186.506 38.571 186.266Z" fill="#22356B"/>
<path d="M58.5068 139.797L53.3402 139.881C52.9456 138.978 52.255 135.968 51.5729 134.151C51.8266 135.261 52.0761 136.407 52.3086 137.532C53.2204 141.903 53.911 146.015 53.8039 146.895C53.5587 148.9 45.7622 147.997 43.7525 147.515C41.7428 147.033 37.1738 148.136 33.518 148.066C31.4167 148.027 32.0607 142.144 32.9867 137.159C33.2079 135.965 33.4461 134.819 33.6673 133.821C32.4863 136.182 31.9494 139.094 31.6633 139.881C31.6633 139.881 26.6165 139.553 26.6151 139.54C26.4445 138.644 28.3443 124.453 32.2101 121.552C32.9852 120.936 33.8788 120.484 34.836 120.225C35.7931 119.965 36.7935 119.903 37.7756 120.043C37.7756 120.043 39.044 122.313 42.7082 122.484C43.7632 122.543 44.8178 122.362 45.7916 121.954C46.7654 121.546 47.6327 120.922 48.3272 120.13C48.3272 120.13 51.3897 120.206 52.6271 121.552C53.8645 122.898 56.6014 127.725 58.5068 139.797Z" fill="#C65447"/>
<path d="M53.805 146.89C53.5597 148.895 45.7633 147.992 43.7536 147.509C41.7439 147.027 37.1748 148.13 33.519 148.06C31.4177 148.021 32.0618 142.138 32.9877 137.154C32.9877 137.154 36.9493 144.125 41.8876 144.077C46.8259 144.029 52.3096 137.527 52.3096 137.527C53.2215 141.9 53.9121 146.009 53.805 146.89Z" fill="#B5493F"/>
<path d="M39.3237 118.558C39.3237 118.558 41.0417 121.95 42.7159 122.484C42.7159 122.484 40.3356 123.389 36.8658 119.973C37.115 119.544 37.4732 119.187 37.9046 118.939C38.3359 118.69 38.8253 118.559 39.3237 118.558Z" fill="#E6F1FF"/>
<path d="M46.5437 118.558C46.5437 118.558 44.3945 121.95 42.7216 122.484C42.7216 122.484 45.5318 123.389 49.0016 119.973C48.7522 119.544 48.3939 119.187 47.9626 118.939C47.5313 118.691 47.042 118.56 46.5437 118.558Z" fill="#E6F1FF"/>
<path d="M42.4737 122.469C42.474 122.415 42.4903 122.363 42.5205 122.318C42.5508 122.274 42.5937 122.239 42.6438 122.219C42.6939 122.198 42.7488 122.193 42.8018 122.204C42.8548 122.215 42.9034 122.241 42.9414 122.279C42.9795 122.317 43.0053 122.366 43.0155 122.419C43.0258 122.472 43.0201 122.526 42.9991 122.576C42.9782 122.625 42.9429 122.668 42.8978 122.697C42.8527 122.727 42.7998 122.743 42.7457 122.742C42.7098 122.742 42.6743 122.735 42.6412 122.721C42.6081 122.707 42.578 122.687 42.5528 122.662C42.5275 122.636 42.5075 122.606 42.494 122.573C42.4804 122.54 42.4735 122.505 42.4737 122.469Z" fill="#35488B"/>
<path d="M42.1945 129.443C42.1954 129.341 42.2266 129.241 42.2842 129.156C42.3419 129.072 42.4234 129.006 42.5185 128.968C42.6136 128.929 42.718 128.92 42.8186 128.94C42.9192 128.96 43.0115 129.01 43.0838 129.083C43.1561 129.155 43.2052 129.247 43.2249 129.348C43.2447 129.448 43.2341 129.552 43.1946 129.646C43.1551 129.74 43.0885 129.821 43.0031 129.877C42.9176 129.934 42.8173 129.964 42.7146 129.964C42.5762 129.964 42.4437 129.908 42.3462 129.81C42.2487 129.713 42.1942 129.58 42.1945 129.443Z" fill="#A53D38"/>
<path d="M42.1946 137.824C42.1957 137.722 42.2271 137.622 42.2849 137.538C42.3428 137.454 42.4243 137.388 42.5195 137.35C42.6146 137.312 42.719 137.302 42.8195 137.323C42.92 137.343 43.0121 137.393 43.0843 137.466C43.1565 137.538 43.2054 137.63 43.225 137.731C43.2446 137.831 43.234 137.934 43.1945 138.029C43.155 138.123 43.0883 138.203 43.0029 138.26C42.9175 138.317 42.8172 138.347 42.7146 138.347C42.646 138.346 42.578 138.333 42.5147 138.306C42.4514 138.28 42.394 138.241 42.3457 138.192C42.2974 138.144 42.2592 138.086 42.2333 138.023C42.2074 137.96 42.1942 137.892 42.1946 137.824Z" fill="#A53D38"/>
<path d="M57.5962 153.507L57.6103 152.048C57.6103 152.048 59.6144 139.664 58.2262 139.28C56.838 138.896 54.2265 140.215 54.2265 140.215L55.0482 152.048C55.0343 152.32 54.9942 152.59 54.9284 152.855C54.8931 152.855 54.8579 152.869 54.8241 152.878C53.4613 153.268 54.2801 156.085 55.2962 156.134C56.0418 156.17 57.0057 155.047 57.6597 154.662C57.9429 154.494 57.8598 153.706 57.5962 153.507Z" fill="#FFB27D"/>
<path d="M53.3407 139.875C53.3407 139.875 53.018 141.621 53.8143 141.876C54.6106 142.131 58.6779 142.259 58.9316 141.876C59.1852 141.493 58.8329 138.563 58.2269 138.347C57.6209 138.131 53.7199 138.932 53.3407 139.875Z" fill="#B5493F"/>
<path d="M30.1812 152.878C30.1474 152.868 30.1122 152.861 30.0783 152.854C30.0125 152.59 29.9724 152.32 29.9586 152.048L30.7802 140.215C30.7802 140.215 28.1673 138.897 26.7791 139.279C25.3909 139.662 27.3964 152.048 27.3964 152.048L27.4091 153.506C27.1455 153.705 27.0624 154.488 27.3471 154.661C27.9996 155.047 28.9636 156.17 29.7091 156.134C30.7252 156.085 31.544 153.268 30.1812 152.878Z" fill="#FFB27D"/>
<path d="M31.6656 139.875C31.6656 139.875 31.9884 141.621 31.1921 141.876C30.3959 142.131 26.3285 142.259 26.0748 141.876C25.8212 141.493 26.1749 138.563 26.7795 138.347C27.3841 138.131 31.2879 138.932 31.6656 139.875Z" fill="#B5493F"/>
<path d="M44.4694 104.353C44.4694 104.353 44.7795 107.157 46.5834 108.227C46.5834 108.227 45.945 106.536 46.3805 105.832C46.3805 105.832 46.7441 108.996 47.8236 110.241C47.8236 110.241 50.6254 104.266 45.5997 103.116C40.574 101.967 38.0992 104.308 37.7553 106.225C37.5518 107.397 37.612 108.6 37.9315 109.747C37.9315 109.747 39.066 106.278 41.4548 105.605C43.8437 104.932 44.4694 104.353 44.4694 104.353Z" fill="#1B2E59"/>
<path d="M323.79 79.0146C323.79 79.0146 315.166 96.3693 314.065 99.1468C313.642 100.215 298.316 95.4818 298.316 95.4818C298.316 95.4818 297.012 94.3462 296.894 93.0759C296.864 92.7534 296.48 92.4029 295.917 92.0678L291.327 93.3857C291.784 94.534 292.356 95.6585 292.677 95.9473C293.344 96.5516 297.328 98.3014 297.328 98.3014C299.789 100.716 315.095 106.927 316.463 106.188C317.899 105.411 324.538 93.3885 327.109 90.2143C329.679 87.04 328.66 76.6339 323.79 79.0146Z" fill="#FFB27D"/>
<path d="M279.968 77.4211L275.328 78.6647L284.037 95.1529L295.17 92.4568L304.483 89.1072L298.13 72.2391L289.136 79.1484L279.968 77.4211Z" fill="#A03732"/>
<path d="M295.172 92.1681L288.83 76.9025C288.83 76.9025 281.116 74.139 276.146 77.4395L284.249 93.7132C284.249 93.7132 288.602 90.4688 295.172 92.1681Z" fill="#E9F3FE"/>
<path d="M298.609 70.9925C292.116 70.6083 288.831 76.9022 288.831 76.9022L295.173 92.1678C297.159 88.7033 305.256 88.4173 305.256 88.4173L298.609 70.9925Z" fill="#C7DCF2"/>
<path d="M304.363 178.634C304.363 178.634 305.279 182.981 304.363 184.173C303.447 185.364 300.948 185.648 301.005 187.355H313.111C313.111 187.355 312.699 184.297 311.42 182.995C310.14 181.692 308.87 174.089 308.87 174.089L304.363 178.634Z" fill="#163560"/>
<path d="M321.199 178.634C321.199 178.634 322.116 182.981 321.199 184.173C320.282 185.364 317.786 185.648 317.842 187.355H329.948C329.948 187.355 329.537 184.297 328.257 182.995C326.977 181.692 325.707 174.089 325.707 174.089L321.199 178.634Z" fill="#163560"/>
<path d="M345.907 141.331C345.062 141.511 344.208 141.64 343.348 141.718C338.979 142.192 330.793 142.559 322.922 142.64C320.125 142.671 317.368 142.667 314.833 142.621H314.8C312.599 142.579 310.572 142.504 308.825 142.395C306.897 142.276 305.324 142.106 304.278 141.887C303.516 141.73 303.031 141.545 302.883 141.327C301.63 139.504 298.514 135.87 298.911 133.105C298.989 132.525 299.241 131.983 299.634 131.549C299.634 131.549 301.774 130.737 305.131 129.586C311.795 127.319 323.272 123.746 332.461 122.59C337.885 121.905 342.513 122.062 344.884 123.829C353.306 130.107 351.274 140.019 345.907 141.331Z" fill="#B23636"/>
<path d="M327.087 176.207C325.763 179.088 321.393 179.23 321.393 179.23C320.398 176.956 319.474 174.786 318.621 172.722C312.682 158.376 309.96 148.896 308.865 142.66C308.85 142.57 308.836 142.486 308.822 142.398C307.121 132.432 309.645 130.916 309.645 130.916L309.797 130.886C311.875 130.451 314.041 130.85 315.825 131.996C318.835 133.897 321.122 137.744 322.837 142.413C322.863 142.488 322.891 142.565 322.919 142.643C325.125 148.744 326.362 156.204 326.965 162.552C327.635 169.584 327.524 175.254 327.087 176.207Z" fill="#892828"/>
<path d="M341.923 76.0691C341.923 76.0691 342.328 76.1153 342.937 76.2093C344.405 76.4532 347.056 77.0183 348.019 78.0236C349.382 79.4452 356.53 98.5946 356.156 101.372C355.783 104.15 347.779 108.416 345.059 108.744L341.923 76.0621V76.0691Z" fill="#0052B4"/>
<path d="M332.282 78.9266C332.254 78.9504 332.305 83.0458 335.829 82.1653C338.145 81.5877 342.608 77.7236 341.76 75.8056C341.355 74.8943 339.092 72.7743 337.6 67.1913L337.197 67.3918L330.432 70.7722C330.432 70.7722 331.208 72.9861 331.79 75.1186C332.285 76.8992 332.637 78.6237 332.282 78.9266Z" fill="#F4A269"/>
<path d="M327.538 72.2174C327.538 72.2174 337.71 74.5224 339.045 68.1332C340.379 61.744 342.592 57.7398 336.151 55.9942C329.711 54.2486 327.938 56.4148 326.975 58.4436C326.013 60.4724 324.925 71.4463 327.538 72.2174Z" fill="#FFB27D"/>
<path d="M348.016 131.986C348.016 131.986 341.804 137.079 342.166 140.602C342.529 144.125 337.255 139.901 337.255 139.901L339.658 131.989L348.016 131.986Z" fill="#A03732"/>
<path d="M335.456 68.3595C337.889 69.1909 341.606 64.3917 342.672 61.5946C343.978 58.1693 340.981 51.3722 333.159 52.3648C331.582 52.5581 330.07 53.104 328.735 53.9618C327.023 55.0834 322.468 57.9871 329.83 61.0856C332.594 62.2493 333.335 67.6346 335.456 68.3595Z" fill="#1C468A"/>
<path d="M336.37 141.331C334.549 141.778 329.183 142.172 322.841 142.414C320.277 142.51 317.55 142.585 314.833 142.624C314.822 142.625 314.811 142.625 314.8 142.624C312.798 142.653 310.796 142.669 308.868 142.66C307.58 142.66 306.332 142.643 305.125 142.618C305.607 143.953 306.043 145.351 306.436 146.789C309.831 159.217 310.044 174.567 309.296 176.192C307.971 179.073 303.6 179.213 303.6 179.213C299.496 169.82 296.637 162.213 294.675 156.064C287.834 134.642 291.856 130.903 291.856 130.903C291.856 130.903 295.38 128.722 300.586 127.389C310.264 124.912 324.915 120.818 332.473 122.6C333.621 122.867 334.594 123.274 335.355 123.84C337.705 125.589 339.237 127.626 340.113 129.667C342.377 134.969 340.24 140.385 336.37 141.331Z" fill="#A03732"/>
<path d="M350.637 130.036C350.104 130.784 349.197 131.438 348.02 131.986C339.598 135.933 319.435 127.2 320.397 121.355C320.735 119.296 322.331 119.309 323.575 115.948C324.542 113.338 325.237 110.892 325.204 108.501C325.195 107.474 325.035 106.454 324.732 105.472C323.974 103.033 323.278 99.1096 322.835 94.9286C322.083 87.8076 322.649 80.5898 324.342 78.0577C324.581 77.7001 338.496 73.7842 349.298 77.3188C349.298 77.3188 350.152 89.9275 347.685 103.084C347.352 104.838 347.509 106.65 348.138 108.321C350.1 113.531 353.973 125.356 350.637 130.036Z" fill="#0052B4"/>
<path d="M329.332 105.653C330.787 101.084 331.209 95.4183 328.248 89.5633C326.112 90.9905 324.271 92.8125 322.826 94.9304C323.269 99.1114 323.965 103.034 324.723 105.474C325.034 106.481 325.193 107.529 325.195 108.582C325.195 108.643 325.195 108.701 325.195 108.762C325.195 108.902 325.195 109.035 325.185 109.173C325.185 109.231 325.185 109.29 325.185 109.348C325.175 109.527 325.163 109.708 325.144 109.888C325.144 109.946 325.132 110.005 325.126 110.063C325.112 110.203 325.095 110.331 325.077 110.465C325.068 110.534 325.058 110.605 325.047 110.673C325.023 110.837 324.996 110.999 324.968 111.163C324.957 111.224 324.944 111.284 324.933 111.346C324.905 111.486 324.875 111.642 324.843 111.789C324.827 111.863 324.81 111.937 324.794 112.012C324.763 112.152 324.732 112.278 324.698 112.413C324.682 112.474 324.668 112.535 324.653 112.596C324.606 112.777 324.557 112.958 324.512 113.14C324.491 113.215 324.469 113.289 324.447 113.365C324.41 113.492 324.371 113.621 324.331 113.75L324.265 113.968C324.207 114.153 324.147 114.338 324.085 114.528L324.021 114.715C323.972 114.855 323.923 115.005 323.87 115.151L323.799 115.356C323.728 115.553 323.658 115.752 323.582 115.954C322.337 119.319 319.345 121.03 319.354 122.725C319.366 127.108 339.614 135.939 348.036 131.992C328.383 135.019 329.329 105.777 329.332 105.653Z" fill="#4395F2"/>
<path d="M325.845 57.9826C325.845 57.9826 326.906 65.6505 332.824 68.4378C332.824 68.4378 328.96 59.5543 330.917 57.8592C332.875 56.1641 325.845 57.9826 325.845 57.9826Z" fill="#1C468A"/>
<path d="M331.681 64.474C331.681 64.474 332.696 62.3962 333.639 62.7916C334.582 63.187 333.277 66.5463 332.652 66.5084C332.028 66.4706 331.681 64.474 331.681 64.474Z" fill="#FFB27D"/>
<path d="M330.496 90.0932C328.919 91.2542 326.203 97.4302 322.41 101.775C322.405 101.785 322.398 101.793 322.391 101.802C321.698 102.605 320.938 103.347 320.117 104.021C313.816 109.107 309.02 107.73 309.02 107.73C305.817 105.953 304.792 102.286 304.484 99.7969C304.373 98.9534 304.332 98.1023 304.361 97.2522C304.361 97.2522 312.212 98.6921 313.021 98.5827C313.83 98.4734 321.824 79.8512 322.911 78.7408C325.261 76.3475 334.899 75.7502 334.899 75.7502C337.448 74.6678 332.374 88.7066 330.496 90.0932Z" fill="#0052B4"/>
<path d="M322.412 101.776C322.406 101.785 322.399 101.794 322.392 101.803C321.699 102.606 320.939 103.348 320.119 104.022C313.818 109.107 309.022 107.73 309.022 107.73C305.818 105.954 304.794 102.286 304.485 99.7976C305.502 100.773 312.839 107.269 322.412 101.776Z" fill="#4395F2"/>
<path d="M356.786 76.8644C352.465 73.6929 347.89 69.8317 348.819 66.5144C350.972 58.8255 344.663 49.4962 338.108 52.247C334.584 53.7248 331.729 73.034 336.581 78.3478C336.152 77.2766 335.678 75.3824 335.482 72.0175C335.515 72.3498 335.957 76.5994 337.338 79.0278C344.409 88.3851 331.677 88.4889 336.82 96.9895C336.82 96.9895 337.258 99.9339 348.913 96.7189C350.968 96.1602 352.808 95.0048 354.2 93.4003C355.172 92.2702 356.057 90.8976 356.173 89.5656C356.129 91.5036 355.529 93.3888 354.443 94.9986C357.995 93.7368 360.306 90.1615 360.785 86.0591C361.153 82.99 360.43 79.5409 356.786 76.8644Z" fill="#1C468A"/>
<path d="M355.73 144.124H305.608C305.608 144.124 306.774 139.244 335.803 139.97C338.108 140.029 340.146 140.126 341.951 140.251C356.214 141.257 355.73 144.124 355.73 144.124Z" fill="#E5BD9E"/>
<path d="M317.556 187.96C323.386 161.882 321.887 145.885 321.88 145.684C321.866 145.282 322.703 144.917 323.148 144.905C323.594 144.892 325.617 144.787 325.85 145.13C326.154 145.58 327.33 165.293 318.641 187.96H317.556Z" fill="#A06B47"/>
<path d="M303.73 187.96C309.559 161.882 308.061 145.885 308.053 145.684C308.038 145.282 308.875 144.917 309.322 144.905C309.769 144.892 311.79 144.787 312.022 145.13C312.328 145.58 313.502 165.293 304.813 187.96H303.73Z" fill="#A06B47"/>
<path d="M356.485 144.904C356.486 145.109 356.406 145.306 356.261 145.452C356.117 145.599 355.92 145.682 355.714 145.685H305.316C305.215 145.685 305.115 145.665 305.021 145.625C304.928 145.586 304.844 145.528 304.774 145.455C304.666 145.346 304.593 145.208 304.563 145.059C304.533 144.909 304.548 144.754 304.605 144.613C304.663 144.471 304.761 144.35 304.888 144.263C305.014 144.177 305.163 144.129 305.316 144.126H355.714C355.816 144.126 355.916 144.147 356.009 144.186C356.103 144.226 356.187 144.283 356.258 144.356C356.404 144.501 356.485 144.698 356.485 144.904Z" fill="#CE9A78"/>
<path d="M343.5 144.124H305.603C305.603 144.124 306.773 139.244 335.891 139.97C338.204 140.029 340.25 140.126 342.06 140.251C341.97 140.86 341.819 142.846 343.5 144.124Z" fill="#D6A685"/>
<path d="M356.485 144.904C356.484 145.111 356.401 145.309 356.254 145.455C356.107 145.601 355.908 145.684 355.7 145.685H328.808C328.706 145.685 328.604 145.665 328.509 145.625C328.414 145.586 328.328 145.528 328.256 145.455C328.146 145.346 328.07 145.208 328.04 145.056C328.009 144.905 328.024 144.748 328.083 144.605C328.143 144.463 328.243 144.341 328.372 144.256C328.502 144.17 328.653 144.125 328.808 144.126H355.7C355.908 144.126 356.107 144.209 356.254 144.356C356.327 144.427 356.385 144.513 356.424 144.607C356.464 144.701 356.485 144.802 356.485 144.904Z" fill="#7C4F31"/>
<path d="M354.924 145H354.935C355.386 145 355.747 144.663 355.74 144.262C355.282 115.674 366.283 93.6929 366.394 93.4742C366.58 93.1083 366.545 92.2923 365.359 92.1871C364.323 92.0974 363.68 92.3273 363.494 92.6905C363.466 92.7452 361.011 97.9762 358.279 107.069C355.765 115.451 353.858 129.178 354.101 144.283C354.113 144.682 354.478 145 354.924 145Z" fill="#7C4F31"/>
<path d="M330.392 145H330.403C330.854 145 331.214 144.663 331.208 144.262C330.75 115.674 341.751 93.6929 341.863 93.4742C342.047 93.1083 342.012 92.2923 340.827 92.1871C339.791 92.0974 339.148 92.3273 338.962 92.6905C338.934 92.7452 336.479 97.9762 333.748 107.069C331.235 115.451 329.328 129.178 329.57 144.283C329.582 144.682 329.947 145 330.392 145Z" fill="#7C4F31"/>
<path d="M362.189 102.255C362.373 102.261 362.553 102.205 362.7 102.094C362.846 101.984 362.95 101.826 362.993 101.649C363.069 101.253 362.771 100.878 362.326 100.808C361.621 100.7 344.935 98.197 337.465 100.285C337.043 100.405 336.796 100.813 336.931 101.196C337.011 101.388 337.16 101.544 337.35 101.632C337.539 101.72 337.755 101.735 337.954 101.673C345.048 99.6887 361.882 102.215 362.054 102.24C362.099 102.248 362.144 102.253 362.189 102.255Z" fill="#7C4F31"/>
<path d="M360.285 107.069C360.469 107.075 360.649 107.019 360.795 106.908C360.942 106.798 361.045 106.641 361.088 106.463C361.164 106.068 360.866 105.692 360.422 105.622C359.717 105.514 343.029 103.01 335.561 105.099C335.131 105.219 334.892 105.627 335.027 106.011C335.107 106.203 335.256 106.359 335.446 106.447C335.635 106.535 335.851 106.549 336.05 106.487C343.146 104.501 359.978 107.029 360.15 107.048C360.194 107.058 360.239 107.065 360.285 107.069Z" fill="#7C4F31"/>
<path d="M359.979 187.96C354.15 161.882 355.648 145.885 355.656 145.684C355.67 145.282 354.833 144.917 354.388 144.905C353.942 144.892 351.92 144.787 351.688 145.13C351.382 145.58 350.208 165.293 358.896 187.96H359.979Z" fill="#7C4F31"/>
<path d="M337.255 187.961C331.426 161.567 332.924 145.372 332.931 145.167C332.947 144.761 332.109 144.392 331.663 144.379C331.216 144.367 329.195 144.259 328.961 144.606C328.657 145.062 327.483 165.018 336.171 187.961H337.255Z" fill="#7C4F31"/>
<path d="M284.681 93.4303L285.025 94.144C285.025 94.144 292.726 92.0619 295.172 92.1671C295.171 92.1671 289.71 90.3556 284.681 93.4303Z" fill="#C7DCF2"/>
<path d="M295.173 92.1677L303.995 88.9149L303.841 88.5279C303.841 88.5279 297.062 88.9149 295.173 92.1677Z" fill="#ADC7E0"/>
<path d="M296.987 93.5292C296.987 93.5292 296.829 91.1947 295.447 90.3535C294.835 90.0254 294.335 89.7759 293.997 89.6146C293.933 89.5856 293.863 89.5736 293.793 89.5801C293.724 89.5865 293.657 89.611 293.6 89.6512C293.543 89.6914 293.497 89.7459 293.468 89.8091C293.439 89.8723 293.426 89.9421 293.433 90.0114C293.471 90.3324 293.62 90.63 293.856 90.8526C294.56 91.5621 294.744 92.7426 294.744 92.7426L296.987 93.5292Z" fill="#FFB27D"/>
</svg>
