<svg width="34" height="25" viewBox="0 0 34 25" fill="none" xmlns="http://www.w3.org/2000/svg">
<path fill-rule="evenodd" clip-rule="evenodd" d="M16.9349 15.2775L17.1105 15.2775L17.5034 15.2788C20.5066 15.2972 27.3696 15.5796 27.3696 19.9102C27.3696 24.2123 20.7458 24.4929 17.5503 24.5112L16.3663 24.5111C13.363 24.4928 6.4986 24.2107 6.4986 19.8855C6.4986 15.578 13.363 15.2971 16.3663 15.2788L16.7592 15.2775C16.8202 15.2775 16.8788 15.2775 16.9349 15.2775ZM16.9349 17.4497C13.2389 17.4497 8.83195 17.8726 8.83195 19.8855C8.83195 21.8529 12.9758 22.3129 16.5971 22.339L16.9349 22.3402C20.6309 22.3402 25.0363 21.9188 25.0363 19.9102C25.0363 17.8769 20.6309 17.4497 16.9349 17.4497ZM29.3072 14.6898C33.0764 15.2155 33.8681 16.8635 33.8681 18.1538C33.8681 18.9416 33.5352 20.3797 31.3108 21.1689C31.1739 21.2167 31.0339 21.2399 30.8955 21.2399C30.4257 21.2399 29.9823 20.9734 29.805 20.5404C29.5748 19.98 29.8781 19.3515 30.4801 19.1386C31.5348 18.765 31.5348 18.3522 31.5348 18.1538C31.5348 17.5195 30.6683 17.0764 28.9603 16.8389C28.3241 16.7491 27.8839 16.1974 27.9788 15.6022C28.0737 15.0084 28.6648 14.6131 29.3072 14.6898ZM5.88944 15.6022C5.98433 16.1974 5.54411 16.7491 4.90788 16.8389C3.19987 17.0764 2.33342 17.5195 2.33342 18.1538C2.33342 18.3522 2.33342 18.7635 3.38965 19.1386C3.99166 19.3515 4.29499 19.98 4.06477 20.5404C3.88743 20.9734 3.4441 21.2399 2.97432 21.2399C2.83587 21.2399 2.69587 21.2167 2.55898 21.1689C0.332967 20.3782 7.62939e-05 18.9402 7.62939e-05 18.1538C7.62939e-05 16.865 0.791859 15.2155 4.56255 14.6898C5.205 14.6145 5.793 15.0084 5.88944 15.6022ZM16.9349 0.196289C20.8549 0.196289 24.0423 3.16503 24.0423 6.81296C24.0423 10.4609 20.8549 13.4296 16.9349 13.4296H16.8929C14.9951 13.4238 13.2171 12.7316 11.8855 11.4804C10.5508 10.2306 9.82129 8.57103 9.829 6.80861C9.829 3.16503 13.0164 0.196289 16.9349 0.196289ZM16.9349 2.36854C14.3029 2.36854 12.1624 4.36266 12.1624 6.81296C12.1577 8.00045 12.6462 9.11119 13.5406 9.94968C14.4351 10.7882 15.6267 11.253 16.896 11.2574L16.9349 12.3435V11.2574C19.5669 11.2574 21.7089 9.2647 21.7089 6.81296C21.7089 4.36266 19.5669 2.36854 16.9349 2.36854ZM26.5623 1.61477C29.297 2.03329 31.2834 4.21133 31.2834 6.79341C31.2772 9.39286 29.1912 11.623 26.4301 11.9836C26.3756 11.9909 26.3212 11.9938 26.2683 11.9938C25.6958 11.9938 25.1965 11.6013 25.114 11.0583C25.0254 10.4631 25.4687 9.9142 26.1081 9.83166C27.7258 9.62022 28.947 8.31398 28.9501 6.79051C28.9501 5.28007 27.7865 4.00279 26.1827 3.75805C25.548 3.66102 25.1172 3.10203 25.2214 2.50973C25.3272 1.91743 25.9229 1.52064 26.5623 1.61477ZM8.64839 2.50973C8.75262 3.10203 8.32172 3.66102 7.68705 3.75805C6.08327 4.00279 4.9197 5.28007 4.9197 6.79341C4.92282 8.31398 6.14393 9.62167 7.76017 9.83166C8.3995 9.9142 8.84284 10.4631 8.75417 11.0583C8.67173 11.6013 8.17239 11.9938 7.59994 11.9938C7.54705 11.9938 7.49261 11.9909 7.43816 11.9836C4.67704 11.623 2.59258 9.39286 2.58636 6.7963C2.58636 4.21133 4.57281 2.03329 7.3075 1.61477C7.96239 1.51919 8.54261 1.92033 8.64839 2.50973Z" fill="#8A8A8A"/>
</svg>
