<svg width="30" height="29" viewBox="0 0 30 29" fill="none" xmlns="http://www.w3.org/2000/svg">
<path fill-rule="evenodd" clip-rule="evenodd" d="M11.8659 24.9726C12.7051 25.7264 13.7824 26.1405 14.9003 26.1405H14.9019C16.0246 26.1405 17.1068 25.7264 17.9476 24.9713C18.398 24.5702 19.1659 24.5376 19.6633 24.8994C20.1623 25.2613 20.2028 25.8818 19.754 26.2829C18.445 27.4546 16.7228 28.1 14.9019 28.1H14.8986C13.0825 28.0987 11.3637 27.4533 10.0595 26.2815C9.61074 25.8805 9.65124 25.26 10.1502 24.8994C10.6492 24.5363 11.4171 24.5689 11.8659 24.9726ZM14.9809 0.0136108C22.1822 0.0136108 27.0197 4.53617 27.0197 8.75957C27.0197 10.932 27.705 11.853 28.4324 12.8301C29.1517 13.7942 29.9666 14.8889 29.9666 16.9582C29.4012 22.2449 22.5564 22.676 14.9809 22.676C7.4055 22.676 0.559089 22.2449 0.000143514 17.0418C-0.00469506 14.8889 0.8102 13.7942 1.52951 12.8301L1.78345 12.4855C2.40868 11.619 2.94221 10.6764 2.94221 8.75957C2.94221 4.53617 7.77974 0.0136108 14.9809 0.0136108ZM14.9809 1.97312C9.3188 1.97312 5.37232 5.54989 5.37232 8.75957C5.37232 11.4755 4.43754 12.7309 3.6113 13.8386C2.94869 14.7283 2.42541 15.4311 2.42541 16.9582C2.69596 19.4219 4.71295 20.7165 14.9809 20.7165C25.1922 20.7165 27.2724 19.3645 27.5413 16.8733C27.5365 15.4311 27.0132 14.7283 26.3506 13.8386C25.5244 12.7309 24.5896 11.4755 24.5896 8.75957C24.5896 5.54989 20.6431 1.97312 14.9809 1.97312Z" fill="#0077FF"/>
</svg>
