<svg width="28" height="28" viewBox="0 0 28 28" fill="none" xmlns="http://www.w3.org/2000/svg">
<path fill-rule="evenodd" clip-rule="evenodd" d="M14.6233 0.0654297C15.6431 0.0654297 16.6344 0.45525 17.3451 1.13279C18.0544 1.81432 18.446 2.74909 18.4161 3.69712C18.419 3.9106 18.4945 4.15722 18.6312 4.37334C18.8576 4.73134 19.2151 4.98326 19.6396 5.08669C20.064 5.1848 20.5083 5.13177 20.8858 4.9236C22.7088 3.95435 25.0289 4.5351 26.0701 6.21902L26.9574 7.64969C26.9802 7.68814 27.0001 7.72526 27.0172 7.76372C27.96 9.42244 27.3305 11.5108 25.5787 12.4641C25.3237 12.6007 25.1172 12.7916 24.9748 13.0223C24.754 13.379 24.6928 13.8033 24.8039 14.1931C24.9178 14.5909 25.1899 14.921 25.573 15.1252C26.4375 15.588 27.0827 16.3676 27.3405 17.2679C27.5983 18.1669 27.4573 19.1428 26.9545 19.9476L26.0088 21.4141C24.9677 23.0794 22.6476 23.6562 20.843 22.6856C20.6023 22.557 20.3246 22.4867 20.0483 22.4801H20.0398C19.6282 22.4801 19.2052 22.6432 18.8975 22.9283C18.5856 23.2186 18.4147 23.6058 18.4175 24.0168C18.4076 25.9646 16.7056 27.5398 14.6233 27.5398H12.8387C10.7465 27.5398 9.04454 25.9567 9.04454 24.0089C9.04169 23.7689 8.96763 23.5196 8.82947 23.3035C8.60587 22.9402 8.24411 22.6803 7.8268 22.5769C7.41234 22.4735 6.95801 22.5305 6.58485 22.732C5.69042 23.1961 4.6379 23.3088 3.6751 23.0569C2.71373 22.8036 1.88339 22.1884 1.3963 21.373L0.506141 19.9449C-0.534987 18.2637 0.0845626 16.1091 1.88767 15.1385C2.39897 14.864 2.71658 14.3522 2.71658 13.8033C2.71658 13.2543 2.39897 12.7412 1.88767 12.4668C0.0831384 11.4909 -0.534987 9.33095 0.504717 7.64969L1.47036 6.17394C2.49725 4.51124 4.81878 3.92518 6.629 4.8931C6.8754 5.02967 7.14316 5.09862 7.41519 5.10127C8.3025 5.10127 9.04454 4.41975 9.05878 3.58177C9.05308 2.6576 9.44475 1.77056 10.1583 1.10097C10.8747 0.432709 11.8261 0.0654297 12.8387 0.0654297H14.6233ZM14.6233 2.05431H12.8387C12.3972 2.05431 11.9842 2.21474 11.6723 2.5038C11.3618 2.79417 11.1923 3.18001 11.1952 3.59105C11.1652 5.52954 9.46327 7.09015 7.40237 7.09015C6.74152 7.08352 6.10488 6.91778 5.55227 6.61017C4.77605 6.19913 3.76198 6.45238 3.30765 7.18827L2.34343 8.66402C1.90191 9.37736 2.17252 10.3201 2.9587 10.7457C4.12517 11.3742 4.85296 12.5463 4.85296 13.8033C4.85296 15.0603 4.12517 16.231 2.95586 16.8608C2.17394 17.2825 1.90333 18.2199 2.35625 18.9492L3.25495 20.3918C3.47713 20.7644 3.84032 21.0335 4.26047 21.1436C4.6792 21.2523 5.14066 21.2059 5.52521 21.007C6.09064 20.6981 6.74864 20.5376 7.40949 20.5376C7.73565 20.5376 8.0618 20.5761 8.38083 20.6556C9.34363 20.8969 10.1797 21.4963 10.6753 22.3011C10.9972 22.8063 11.1752 23.3963 11.1809 23.9983C11.1809 24.8601 11.9244 25.5509 12.8387 25.5509H14.6233C15.5334 25.5509 16.2769 24.8641 16.2812 24.0168C16.2755 23.0807 16.6686 22.191 17.3878 21.5215C18.0971 20.8611 19.0884 20.4647 20.0796 20.4912C20.7291 20.5058 21.3544 20.6689 21.9055 20.9606C22.6988 21.3836 23.7115 21.1316 24.1701 20.4024L25.1158 18.9346C25.3266 18.5965 25.3878 18.1722 25.2753 17.781C25.1642 17.3899 24.8851 17.0505 24.5091 16.8502C23.6289 16.3782 23.0008 15.6171 22.7401 14.7049C22.4824 13.8099 22.6234 12.8327 23.1261 12.0279C23.4537 11.4975 23.9337 11.0507 24.5091 10.7431C25.281 10.3227 25.5516 9.38266 25.103 8.65076C25.0845 8.62159 25.0674 8.59109 25.0531 8.55927L24.2185 7.21214C23.7642 6.47625 22.753 6.223 21.9597 6.64332C21.1023 7.11534 20.0825 7.25059 19.1026 7.01059C18.1241 6.77458 17.3038 6.19781 16.7925 5.38369C16.4649 4.87454 16.2869 4.28185 16.2812 3.67856C16.294 3.2251 16.1231 2.81804 15.8126 2.51971C15.5035 2.2227 15.0691 2.05431 14.6233 2.05431ZM13.7373 9.31252C16.3964 9.31252 18.5598 11.3279 18.5598 13.8034C18.5598 16.2789 16.3964 18.2916 13.7373 18.2916C11.0782 18.2916 8.91479 16.2789 8.91479 13.8034C8.91479 11.3279 11.0782 9.31252 13.7373 9.31252ZM13.7373 11.3014C12.2561 11.3014 11.0512 12.4245 11.0512 13.8034C11.0512 15.1824 12.2561 16.3028 13.7373 16.3028C15.2185 16.3028 16.4234 15.1824 16.4234 13.8034C16.4234 12.4245 15.2185 11.3014 13.7373 11.3014Z" fill="#8A8A8A"/>
</svg>
