<svg width="33" height="29" viewBox="0 0 33 29" fill="none" xmlns="http://www.w3.org/2000/svg">
<path d="M11.6917 26.4363V22.1492C11.6917 21.0548 12.7758 20.1676 14.113 20.1676H19.0014C19.6435 20.1676 20.2594 20.3764 20.7135 20.748C21.1676 21.1196 21.4227 21.6236 21.4227 22.1492V26.4363C21.4186 26.8913 21.6366 27.3288 22.0283 27.6517C22.42 27.9746 22.953 28.1562 23.509 28.1562H26.844C28.4016 28.1595 29.8968 27.6554 30.9996 26.7552C32.1024 25.855 32.7222 24.6327 32.7222 23.358V11.1446C32.7222 10.115 32.1645 9.13825 31.1994 8.47763L19.8542 1.06236C17.8806 -0.237788 15.053 -0.19581 13.1384 1.16206L2.05207 8.47763C1.04134 9.11878 0.437247 10.0984 0.407394 11.1446V23.3456C0.407394 26.0024 3.03915 28.1562 6.28558 28.1562H9.54448C10.6992 28.1562 11.6376 27.3937 11.646 26.4488L11.6917 26.4363Z" fill="#0077FF"/>
</svg>
