<svg width="31" height="29" viewBox="0 0 31 29" fill="none" xmlns="http://www.w3.org/2000/svg">
<path fill-rule="evenodd" clip-rule="evenodd" d="M15.4396 0C19.5665 0 23.4449 1.49374 26.358 4.20706C32.3796 9.81292 32.3796 18.9331 26.358 24.539C23.4061 27.2884 19.4315 28.7434 15.4051 28.7434C13.2102 28.7434 11.001 28.3114 8.93391 27.4208C8.32485 27.1935 7.75458 26.9795 7.34519 26.9795C6.87404 26.9822 6.24056 27.1854 5.62864 27.382C4.37318 27.7832 2.81032 28.2833 1.65398 27.2109C0.501949 26.137 1.03344 24.6861 1.4615 23.5186C1.67266 22.9436 1.88956 22.3499 1.88956 21.9005C1.88956 21.5314 1.69851 21.0607 1.40548 20.3827C-1.28499 14.9735 -0.041029 8.45425 4.52257 4.2084C7.43569 1.49507 11.3127 0 15.4396 0ZM15.441 2.00591C11.8887 2.00591 8.55181 3.29237 6.04521 5.62725C2.11795 9.28068 1.04924 14.8905 3.38347 19.5884C3.7196 20.3627 4.04423 21.1169 4.04423 21.9005C4.04423 22.6828 3.75551 23.4705 3.50126 24.1659C3.29153 24.7382 2.97408 25.6021 3.17805 25.792C3.37772 25.9846 4.31141 25.681 4.92765 25.4844C5.66742 25.2491 6.50631 24.9789 7.33801 24.9736C8.17115 24.9736 8.95689 25.2678 9.78859 25.5794C14.8837 27.7725 20.9096 26.7749 24.8354 23.1215C30.0152 18.2966 30.0152 10.4481 24.8354 5.62591C22.3274 3.29103 18.9919 2.00591 15.441 2.00591ZM21.1105 13.5903C21.9035 13.5903 22.547 14.1881 22.547 14.9276C22.547 15.6671 21.9035 16.2649 21.1105 16.2649C20.3176 16.2649 19.6683 15.6671 19.6683 14.9276C19.6683 14.1881 20.3047 13.5903 21.0976 13.5903H21.1105ZM15.3521 13.5903C16.145 13.5903 16.7886 14.1881 16.7886 14.9276C16.7886 15.6671 16.145 16.2649 15.3521 16.2649C14.5592 16.2649 13.9099 15.6671 13.9099 14.9276C13.9099 14.1881 14.5448 13.5903 15.3392 13.5903H15.3521ZM9.59309 13.5903C10.386 13.5903 11.0295 14.1881 11.0295 14.9276C11.0295 15.6671 10.386 16.2649 9.59309 16.2649C8.80017 16.2649 8.1509 15.6671 8.1509 14.9276C8.1509 14.1881 8.78725 13.5903 9.58017 13.5903H9.59309Z" fill="#8A8A8A"/>
</svg>
