<svg width="14" height="17" viewBox="0 0 14 17" fill="none" xmlns="http://www.w3.org/2000/svg">
<path fill-rule="evenodd" clip-rule="evenodd" d="M9.75922 0.530518C12.1367 0.530518 13.7339 2.23476 13.7339 4.77093V12.0502C13.7339 14.6085 12.1859 16.2724 9.79023 16.2882L3.97271 16.2906C1.59518 16.2906 -0.00268555 14.5863 -0.00268555 12.0502V4.77093C-0.00268555 2.2118 1.54528 0.548724 3.94095 0.533684L9.75847 0.530518H9.75922ZM9.75922 1.71787L3.94473 1.72103C2.18427 1.73211 1.13163 2.87197 1.13163 4.77093V12.0502C1.13163 13.9618 2.1941 15.1032 3.97195 15.1032L9.78645 15.1009C11.5469 15.0898 12.5995 13.9483 12.5995 12.0502V4.77093C12.5995 2.8593 11.5378 1.71787 9.75922 1.71787ZM9.61335 11.1958C9.92642 11.1958 10.1805 11.4618 10.1805 11.7895C10.1805 12.1172 9.92642 12.3832 9.61335 12.3832H4.15352C3.84045 12.3832 3.58636 12.1172 3.58636 11.7895C3.58636 11.4618 3.84045 11.1958 4.15352 11.1958H9.61335ZM9.61335 7.88194C9.92642 7.88194 10.1805 8.14791 10.1805 8.47562C10.1805 8.80333 9.92642 9.06929 9.61335 9.06929H4.15352C3.84045 9.06929 3.58636 8.80333 3.58636 8.47562C3.58636 8.14791 3.84045 7.88194 4.15352 7.88194H9.61335ZM6.23665 4.57573C6.54972 4.57573 6.8038 4.8417 6.8038 5.16941C6.8038 5.49712 6.54972 5.76308 6.23665 5.76308H4.15329C3.84022 5.76308 3.58613 5.49712 3.58613 5.16941C3.58613 4.8417 3.84022 4.57573 4.15329 4.57573H6.23665Z" fill="#0077FF"/>
</svg>
