<svg width="40" height="39" viewBox="0 0 40 39" fill="none" xmlns="http://www.w3.org/2000/svg">
<path d="M35.9321 38.146H32.6655V34.059C32.6629 32.253 31.8017 30.5217 30.2707 29.2447C28.7398 27.9677 26.6641 27.2493 24.4991 27.2472H14.6994C12.5343 27.2493 10.4586 27.9677 8.92768 29.2447C7.39674 30.5217 6.53552 32.253 6.53293 34.059V38.146H3.26636V34.059C3.26982 31.5306 4.47547 29.1066 6.61882 27.3188C8.76218 25.531 11.6682 24.5253 14.6994 24.5225H24.4991C27.5302 24.5253 30.4362 25.531 32.5796 27.3188C34.7229 29.1066 35.9286 31.5306 35.9321 34.059V38.146Z" fill="#5285F2"/>
<path d="M1.63328 5.44946C1.20011 5.44946 0.784679 5.593 0.478378 5.84849C0.172078 6.10398 0 6.4505 0 6.81182V19.073H3.26657V6.81182C3.26657 6.4505 3.09449 6.10398 2.78819 5.84849C2.48189 5.593 2.06646 5.44946 1.63328 5.44946Z" fill="#5285F2"/>
<path d="M0 0V2.72471H8.16642V12.2612C8.16642 14.7904 9.37097 17.2161 11.5151 19.0045C13.6592 20.793 16.5672 21.7977 19.5994 21.7977C22.6316 21.7977 25.5397 20.793 27.6838 19.0045C29.8279 17.2161 31.0324 14.7904 31.0324 12.2612V2.72471H39.1988V0H0ZM11.433 2.72471H27.7658V6.81178H11.433V2.72471ZM19.5994 19.073C17.4335 19.073 15.3564 18.3553 13.8249 17.0779C12.2934 15.8004 11.433 14.0678 11.433 12.2612V9.53649H27.7658V12.2612C27.7658 14.0678 26.9054 15.8004 25.3739 17.0779C23.8424 18.3553 21.7653 19.073 19.5994 19.073Z" fill="#5285F2"/>
</svg>
