<svg width="28" height="28" viewBox="0 0 28 28" fill="none" xmlns="http://www.w3.org/2000/svg">
<path fill-rule="evenodd" clip-rule="evenodd" d="M14.6233 0.0654297C15.643 0.0654297 16.6343 0.45525 17.345 1.13279C18.0543 1.81432 18.446 2.74909 18.416 3.69712C18.4189 3.9106 18.4944 4.15722 18.6311 4.37334C18.8576 4.73134 19.215 4.98326 19.6395 5.08669C20.0639 5.1848 20.5083 5.13177 20.8857 4.9236C22.7087 3.95435 25.0288 4.5351 26.07 6.21902L26.9573 7.64969C26.9801 7.68814 27 7.72526 27.0171 7.76372C27.96 9.42244 27.3304 11.5108 25.5786 12.4641C25.3237 12.6007 25.1172 12.7916 24.9747 13.0223C24.754 13.379 24.6927 13.8033 24.8038 14.1931C24.9178 14.5909 25.1898 14.921 25.5729 15.1252C26.4374 15.588 27.0826 16.3676 27.3404 17.2679C27.5982 18.1669 27.4572 19.1428 26.9544 19.9476L26.0087 21.4141C24.9676 23.0794 22.6475 23.6562 20.843 22.6856C20.6023 22.557 20.3245 22.4867 20.0482 22.4801H20.0397C19.6281 22.4801 19.2051 22.6432 18.8974 22.9283C18.5855 23.2186 18.4146 23.6058 18.4175 24.0168C18.4075 25.9646 16.7055 27.5398 14.6233 27.5398H12.8387C10.7464 27.5398 9.04446 25.9567 9.04446 24.0089C9.04161 23.7689 8.96755 23.5196 8.8294 23.3035C8.60579 22.9402 8.24403 22.6803 7.82672 22.5769C7.41227 22.4735 6.95793 22.5305 6.58478 22.732C5.69034 23.1961 4.63782 23.3088 3.67503 23.0569C2.71366 22.8036 1.88332 22.1884 1.39622 21.373L0.506065 19.9449C-0.535064 18.2637 0.0844863 16.1091 1.88759 15.1385C2.3989 14.864 2.71651 14.3522 2.71651 13.8033C2.71651 13.2543 2.3989 12.7412 1.88759 12.4668C0.0830621 11.4909 -0.535064 9.33095 0.504641 7.64969L1.47028 6.17394C2.49717 4.51124 4.8187 3.92518 6.62893 4.8931C6.87532 5.02967 7.14308 5.09862 7.41511 5.10127C8.30242 5.10127 9.04446 4.41975 9.0587 3.58177C9.053 2.6576 9.44467 1.77056 10.1582 1.10097C10.8746 0.432709 11.826 0.0654297 12.8387 0.0654297H14.6233ZM14.6233 2.05431H12.8387C12.3972 2.05431 11.9841 2.21474 11.6722 2.5038C11.3617 2.79417 11.1922 3.18001 11.1951 3.59105C11.1652 5.52954 9.46319 7.09015 7.4023 7.09015C6.74144 7.08352 6.1048 6.91778 5.55219 6.61017C4.77597 6.19913 3.76191 6.45238 3.30757 7.18827L2.34335 8.66402C1.90183 9.37736 2.17244 10.3201 2.95863 10.7457C4.12509 11.3742 4.85288 12.5463 4.85288 13.8033C4.85288 15.0603 4.12509 16.231 2.95578 16.8608C2.17386 17.2825 1.90326 18.2199 2.35617 18.9492L3.25487 20.3918C3.47706 20.7644 3.84024 21.0335 4.26039 21.1436C4.67913 21.2523 5.14058 21.2059 5.52513 21.007C6.09056 20.6981 6.74856 20.5376 7.40942 20.5376C7.73557 20.5376 8.06173 20.5761 8.38076 20.6556C9.34355 20.8969 10.1796 21.4963 10.6752 22.3011C10.9971 22.8063 11.1751 23.3963 11.1808 23.9983C11.1808 24.8601 11.9243 25.5509 12.8387 25.5509H14.6233C15.5334 25.5509 16.2768 24.8641 16.2811 24.0168C16.2754 23.0807 16.6685 22.191 17.3877 21.5215C18.097 20.8611 19.0883 20.4647 20.0796 20.4912C20.729 20.5058 21.3543 20.6689 21.9055 20.9606C22.6988 21.3836 23.7114 21.1316 24.17 20.4024L25.1157 18.9346C25.3265 18.5965 25.3878 18.1722 25.2752 17.781C25.1642 17.3899 24.885 17.0505 24.509 16.8502C23.6288 16.3782 23.0007 15.6171 22.7401 14.7049C22.4823 13.8099 22.6233 12.8327 23.126 12.0279C23.4536 11.4975 23.9336 11.0507 24.509 10.7431C25.2809 10.3227 25.5515 9.38266 25.1029 8.65076C25.0844 8.62159 25.0673 8.59109 25.0531 8.55927L24.2184 7.21214C23.7641 6.47625 22.7529 6.223 21.9596 6.64332C21.1022 7.11534 20.0824 7.25059 19.1025 7.01059C18.1241 6.77458 17.3037 6.19781 16.7924 5.38369C16.4648 4.87454 16.2868 4.28185 16.2811 3.67856C16.2939 3.2251 16.123 2.81804 15.8125 2.51971C15.5034 2.2227 15.069 2.05431 14.6233 2.05431ZM13.7372 9.31252C16.3963 9.31252 18.5597 11.3279 18.5597 13.8034C18.5597 16.2789 16.3963 18.2916 13.7372 18.2916C11.0782 18.2916 8.91471 16.2789 8.91471 13.8034C8.91471 11.3279 11.0782 9.31252 13.7372 9.31252ZM13.7372 11.3014C12.256 11.3014 11.0511 12.4245 11.0511 13.8034C11.0511 15.1824 12.256 16.3028 13.7372 16.3028C15.2185 16.3028 16.4234 15.1824 16.4234 13.8034C16.4234 12.4245 15.2185 11.3014 13.7372 11.3014Z" fill="#8A8A8A"/>
</svg>
