<svg width="30" height="29" viewBox="0 0 30 29" fill="none" xmlns="http://www.w3.org/2000/svg">
<path fill-rule="evenodd" clip-rule="evenodd" d="M11.8658 24.9726C12.705 25.7264 13.7823 26.1405 14.9001 26.1405H14.9018C16.0245 26.1405 17.1067 25.7264 17.9475 24.9713C18.3979 24.5702 19.1658 24.5376 19.6631 24.8994C20.1621 25.2613 20.2026 25.8818 19.7539 26.2829C18.4449 27.4546 16.7227 28.1 14.9018 28.1H14.8985C13.0824 28.0987 11.3635 27.4533 10.0594 26.2815C9.61062 25.8805 9.65112 25.26 10.1501 24.8994C10.6491 24.5363 11.417 24.5689 11.8658 24.9726ZM14.9808 0.0136108C22.182 0.0136108 27.0196 4.53617 27.0196 8.75957C27.0196 10.932 27.7049 11.853 28.4323 12.8301C29.1516 13.7942 29.9665 14.8889 29.9665 16.9582C29.4011 22.2449 22.5563 22.676 14.9808 22.676C7.40538 22.676 0.558967 22.2449 2.14438e-05 17.0418C-0.00481713 14.8889 0.810078 13.7942 1.52939 12.8301L1.78333 12.4855C2.40856 11.619 2.94209 10.6764 2.94209 8.75957C2.94209 4.53617 7.77962 0.0136108 14.9808 0.0136108ZM14.9808 1.97312C9.31868 1.97312 5.37219 5.54989 5.37219 8.75957C5.37219 11.4755 4.43741 12.7309 3.61118 13.8386C2.94857 14.7283 2.42529 15.4311 2.42529 16.9582C2.69584 19.4219 4.71283 20.7165 14.9808 20.7165C25.1921 20.7165 27.2723 19.3645 27.5412 16.8733C27.5364 15.4311 27.0131 14.7283 26.3505 13.8386C25.5242 12.7309 24.5895 11.4755 24.5895 8.75957C24.5895 5.54989 20.643 1.97312 14.9808 1.97312Z" fill="#0077FF"/>
</svg>
