<svg width="34" height="25" viewBox="0 0 34 25" fill="none" xmlns="http://www.w3.org/2000/svg">
<path fill-rule="evenodd" clip-rule="evenodd" d="M16.9348 15.2775L17.1105 15.2775L17.5034 15.2788C20.5065 15.2972 27.3695 15.5796 27.3695 19.9102C27.3695 24.2123 20.7458 24.4929 17.5502 24.5112L16.3662 24.5111C13.3629 24.4928 6.49853 24.2107 6.49853 19.8855C6.49853 15.578 13.3629 15.2971 16.3662 15.2788L16.7592 15.2775C16.8201 15.2775 16.8787 15.2775 16.9348 15.2775ZM16.9348 17.4497C13.2388 17.4497 8.83187 17.8726 8.83187 19.8855C8.83187 21.8529 12.9757 22.3129 16.597 22.339L16.9348 22.3402C20.6308 22.3402 25.0362 21.9188 25.0362 19.9102C25.0362 17.8769 20.6308 17.4497 16.9348 17.4497ZM29.3071 14.6898C33.0763 15.2155 33.8681 16.8635 33.8681 18.1538C33.8681 18.9416 33.5352 20.3797 31.3107 21.1689C31.1738 21.2167 31.0338 21.2399 30.8954 21.2399C30.4256 21.2399 29.9823 20.9734 29.8049 20.5404C29.5747 19.98 29.878 19.3515 30.48 19.1386C31.5347 18.765 31.5347 18.3522 31.5347 18.1538C31.5347 17.5195 30.6683 17.0764 28.9603 16.8389C28.324 16.7491 27.8838 16.1974 27.9787 15.6022C28.0736 15.0084 28.6647 14.6131 29.3071 14.6898ZM5.88937 15.6022C5.98426 16.1974 5.54403 16.7491 4.90781 16.8389C3.1998 17.0764 2.33335 17.5195 2.33335 18.1538C2.33335 18.3522 2.33335 18.7635 3.38958 19.1386C3.99158 19.3515 4.29491 19.98 4.06469 20.5404C3.88736 20.9734 3.44402 21.2399 2.97424 21.2399C2.83579 21.2399 2.69579 21.2167 2.5589 21.1689C0.332891 20.3782 0 18.9402 0 18.1538C0 16.865 0.791782 15.2155 4.56247 14.6898C5.20492 14.6145 5.79292 15.0084 5.88937 15.6022ZM16.9348 0.196289C20.8548 0.196289 24.0422 3.16503 24.0422 6.81296C24.0422 10.4609 20.8548 13.4296 16.9348 13.4296H16.8928C14.995 13.4238 13.217 12.7316 11.8854 11.4804C10.5508 10.2306 9.82121 8.57103 9.82893 6.80861C9.82893 3.16503 13.0163 0.196289 16.9348 0.196289ZM16.9348 2.36854C14.3028 2.36854 12.1623 4.36266 12.1623 6.81296C12.1577 8.00045 12.6461 9.11119 13.5406 9.94968C14.435 10.7882 15.6266 11.253 16.8959 11.2574L16.9348 12.3435V11.2574C19.5668 11.2574 21.7088 9.2647 21.7088 6.81296C21.7088 4.36266 19.5668 2.36854 16.9348 2.36854ZM26.5622 1.61477C29.2969 2.03329 31.2833 4.21133 31.2833 6.79341C31.2771 9.39286 29.1911 11.623 26.43 11.9836C26.3755 11.9909 26.3211 11.9938 26.2682 11.9938C25.6957 11.9938 25.1964 11.6013 25.114 11.0583C25.0253 10.4631 25.4686 9.9142 26.108 9.83166C27.7258 9.62022 28.9469 8.31398 28.95 6.79051C28.95 5.28007 27.7864 4.00279 26.1826 3.75805C25.548 3.66102 25.1171 3.10203 25.2213 2.50973C25.3271 1.91743 25.9229 1.52064 26.5622 1.61477ZM8.64832 2.50973C8.75254 3.10203 8.32165 3.66102 7.68698 3.75805C6.08319 4.00279 4.91963 5.28007 4.91963 6.79341C4.92274 8.31398 6.14386 9.62167 7.76009 9.83166C8.39943 9.9142 8.84276 10.4631 8.75409 11.0583C8.67165 11.6013 8.17231 11.9938 7.59987 11.9938C7.54698 11.9938 7.49253 11.9909 7.43809 11.9836C4.67696 11.623 2.5925 9.39286 2.58628 6.7963C2.58628 4.21133 4.57274 2.03329 7.30742 1.61477C7.96231 1.51919 8.54254 1.92033 8.64832 2.50973Z" fill="#8A8A8A"/>
</svg>
