<svg width="33" height="29" viewBox="0 0 33 29" fill="none" xmlns="http://www.w3.org/2000/svg">
<path d="M11.6918 26.4363V22.1492C11.6918 21.0548 12.7758 20.1676 14.1131 20.1676H19.0014C19.6436 20.1676 20.2595 20.3764 20.7136 20.748C21.1677 21.1196 21.4228 21.6236 21.4228 22.1492V26.4363C21.4187 26.8913 21.6367 27.3288 22.0284 27.6517C22.4201 27.9746 22.9531 28.1562 23.5091 28.1562H26.8441C28.4017 28.1595 29.8969 27.6554 30.9997 26.7552C32.1025 25.855 32.7223 24.6327 32.7223 23.358V11.1446C32.7223 10.115 32.1645 9.13825 31.1994 8.47763L19.8542 1.06236C17.8807 -0.237788 15.0531 -0.19581 13.1385 1.16206L2.05215 8.47763C1.04142 9.11878 0.437323 10.0984 0.407471 11.1446V23.3456C0.407471 26.0024 3.03923 28.1562 6.28566 28.1562H9.54455C10.6993 28.1562 11.6377 27.3937 11.6461 26.4488L11.6918 26.4363Z" fill="#0077FF"/>
</svg>
